<svg viewBox="0 0 286 545" xmlns="http://www.w3.org/2000/svg">
    <path
        d="M48.935 531.166c0 .035-.015.062-.023.09a49.328 49.328 0 01-7.233 10.058c-.106.082-.318.116-.4.02a.223.223 0 01-.046-.356 49.065 49.065 0 007.166-9.935c.06-.13.234-.185.378-.13.113.041.158.137.158.253zM34.377 112.067c0 3.282-2.937 5.961-6.569 5.961-3.602 0-6.54-2.679-6.54-5.961 0-3.282 2.938-5.947 6.54-5.947 3.625 0 6.57 2.672 6.57 5.947zm-10.601-2.987l3.066 2.034c.068-.061.173-.109.256-.171l-1.193-3.309a5.217 5.217 0 00-2.13 1.446zm-.378 5.577l3.119-2.042c-.06-.096-.06-.192-.106-.288h-3.82c.067.857.324 1.651.807 2.33zm2.515 1.85l1.193-3.31c-.083-.054-.189-.102-.257-.164l-3.066 2.021a5.023 5.023 0 002.13 1.453zm5.957-1.453l-3.088-2.035c-.068.076-.174.124-.257.178l1.17 3.31a5.126 5.126 0 002.175-1.453zm.333-5.57l-3.066 2.048c.038.096.045.192.06.288h3.851a4.53 4.53 0 00-.845-2.336zm-2.515-1.85l-1.17 3.309c.083.062.189.11.256.185l3.089-2.042a5.087 5.087 0 00-2.175-1.452zm-1.887-.322c-.461 0-.884.068-1.337.171l1.17 3.309c.068 0 .121-.02.166-.02.069 0 .121.02.19.02l1.177-3.309a5.831 5.831 0 00-1.367-.171zm0 9.524c.483 0 .928-.069 1.366-.178l-1.178-3.303c-.068 0-.12.027-.189.027-.045 0-.098-.027-.166-.027l-1.17 3.303c.453.109.876.178 1.337.178zm0-5.05c-.167 0-.295.116-.295.281 0 .164.128.294.294.294.212 0 .34-.13.34-.294 0-.165-.128-.281-.34-.281zm1.389.541c-.015.096-.023.192-.06.288l3.065 2.042a4.416 4.416 0 00.838-2.33H29.19zm-2.779-.507c.045-.096.045-.192.106-.288l-3.119-2.048c-.483.685-.74 1.48-.815 2.336h3.828zM30.73 277.536a8.478 8.478 0 01-5.489 1.987 8.452 8.452 0 01-5.474-1.987l-1.117 1.028c-.09.089-.295.089-.4 0a.276.276 0 010-.363l1.117-1.014c-1.321-1.316-2.182-3.049-2.182-4.982 0-1.918.86-3.652 2.182-4.967l-1.117-1.028c-.091-.082-.091-.253 0-.356.105-.11.31-.11.4 0l1.117 1.014a8.48 8.48 0 015.474-1.973c2.137 0 4.032.753 5.49 1.973l1.117-1.014c.12-.11.295-.11.4 0 .06.041.09.116.09.185 0 .068-.037.13-.09.171l-1.132 1.028c1.359 1.315 2.182 3.049 2.182 4.967 0 1.926-.823 3.659-2.182 4.982l1.132 1.014c.06.048.09.109.09.185 0 .061-.037.123-.09.185a.333.333 0 01-.4 0l-1.117-1.035zm-5.489 1.466c1.971 0 3.738-.699 5.074-1.822l-2.454-2.248a4.229 4.229 0 01-2.62.912 4.074 4.074 0 01-2.582-.912l-2.492 2.248a7.868 7.868 0 005.074 1.822zm0-7.16l1.933-1.747a3.082 3.082 0 00-1.933-.658c-.732 0-1.404.24-1.933.658l1.933 1.747zm-2.325-1.398c-.446.48-.71 1.09-.71 1.754 0 .672.257 1.282.71 1.761l1.948-1.761-1.948-1.754zm2.74 1.761l1.926 1.761c.438-.479.732-1.089.732-1.761 0-.671-.294-1.274-.732-1.754l-1.925 1.754zm-.415.363l-1.933 1.755a3.14 3.14 0 001.933.657c.74 0 1.405-.246 1.933-.657l-1.933-1.755zm-7.49-.363c0 1.789.8 3.392 2.016 4.618l2.47-2.24c-.605-.651-.99-1.46-.99-2.378 0-.911.393-1.726.99-2.364l-2.47-2.24c-1.215 1.206-2.016 2.823-2.016 4.604zm7.49-6.797c-1.97 0-3.73.699-5.074 1.823l2.492 2.241a4.109 4.109 0 012.582-.891c1.012 0 1.91.336 2.62.891l2.454-2.241c-1.336-1.124-3.103-1.823-5.074-1.823zm7.49 6.797c0-1.774-.77-3.391-2.008-4.604l-2.476 2.24c.611.645 1.011 1.46 1.011 2.364 0 .918-.4 1.727-1.011 2.378l2.476 2.24c1.246-1.226 2.009-2.829 2.009-4.618z"
        fill="#414042" />
    <path
        d="M8.275 272.02l16.778-15.217a.303.303 0 01.392 0l16.8 15.217c.038.055.06.117.06.185a.269.269 0 01-.06.178l-16.8 15.232a.304.304 0 01-.392 0L8.275 272.383c-.12-.095-.12-.26 0-.363zm33.344.185L25.24 257.344 8.864 272.205l16.377 14.862 16.378-14.862z"
        fill="#414042" />
    <path
        d="M25.053 286.389L9.619 272.377c-.09-.089-.09-.261 0-.357l15.434-13.998c.105-.102.271-.102.392 0l15.426 13.998c.068.055.106.117.106.185 0 .076-.038.131-.106.179l-15.426 14.011c-.12.103-.287.103-.392-.006zm15.23-14.184l-15.05-13.641-15.032 13.641 15.033 13.649 15.048-13.649zM104.862 495.832h1.487v-1.35h.635v1.35h1.48v.569h-1.48v1.357h-.635v-1.357h-1.487v-.569zM109.363 500.724h-5.49v-.39c.551-.24 1.004-.72 1.382-1.439h.627c-.189.48-.446.897-.778 1.233h4.259v.596zM108.592 502.615h.771v.692h-.771v-.692zM107.339 505.377c.77-.843 1.419-1.261 2.016-1.261v3.275h-.672v-2.432c-.189.116-.393.26-.552.445l-.46.507c-.665.699-1.118 1.117-1.427 1.268-.31.116-.589.212-.861.212-.461 0-.823-.158-1.088-.459-.286-.26-.422-.63-.422-1.117 0-.952.528-1.494 1.578-1.583l.068.631c-.295 0-.567.061-.77.233-.227.15-.333.39-.333.719 0 .24.083.459.234.63.151.22.401.309.718.309.211 0 .468-.082.732-.24.317-.178.71-.534 1.239-1.137zM106.666 511.296c-1.88 0-2.793-.548-2.793-1.617 0-1.089.921-1.63 2.793-1.63 1.851 0 2.787.534 2.787 1.63 0 1.069-.929 1.617-2.787 1.617zm0-2.61c-.815 0-1.366.062-1.721.233-.355.185-.521.425-.521.726 0 .685.74 1.014 2.242 1.014 1.488 0 2.221-.329 2.221-.986 0-.658-.733-.987-2.221-.987zM170.386 10.867c-.295.404-.657.664-1.133.78-.46.11-1.004.186-1.608.186h-4.199v-.877h4.199c.921 0 1.525-.137 1.85-.425.317-.274.46-.726.46-1.357 0-.445-.09-.801-.294-1.062-.211-.26-.468-.431-.8-.486-.318-.075-.733-.11-1.216-.11h-4.199V6.64h4.199c1.117 0 1.956.206 2.439.61.498.404.778 1.069.778 2 .007.672-.174 1.213-.476 1.618zM163.597 17.102a5.297 5.297 0 01-.151-1.33V13.28h7.28v.87h-2.96v1.7c0 1.65-.74 2.466-2.22 2.466-.484 0-.899-.117-1.261-.35-.355-.233-.582-.514-.688-.863zm3.293-1.24v-1.713h-2.583v1.7c0 .417.038.719.106.91.06.206.189.364.393.48.203.117.468.178.77.178.891 0 1.314-.52 1.314-1.555zM205.926 468.274c.906 0 1.525-.15 1.85-.424.294-.261.468-.72.468-1.343 0-.459-.106-.816-.31-1.09-.234-.24-.498-.418-.823-.479-.317-.089-.732-.124-1.193-.124h-4.198v-.87h4.198c1.118 0 1.956.206 2.454.624.499.39.733 1.048.733 1.987 0 .089-.015.15-.015.239h6.418c.128 0 .272.083.272.233 0 .151-.144.274-.272.274h-6.486c-.068.329-.167.624-.355.871-.295.418-.695.657-1.171.774-.46.116-.981.185-1.578.185h-4.198v-.87h4.206v.013zM201.879 474.427c-.091-.329-.151-.774-.151-1.322v-2.487h7.279v.87h-2.96v1.679c0 1.651-.732 2.459-2.22 2.459-.498 0-.906-.082-1.276-.328-.347-.24-.582-.535-.672-.871zm3.3-1.226v-1.713h-2.598v1.679c0 .424.023.719.091.931a.815.815 0 00.4.453c.189.116.461.185.755.185.891-.007 1.352-.521 1.352-1.535zM175.444 209.937c.272.493.801.918 1.556 1.24v.596a3.82 3.82 0 01-1.306-.733v3.871h-.687v-4.974h.437zM172.153 214.226h.755v.685h-.755v-.685zM167.615 212.479c0-1.692.604-2.535 1.789-2.535 1.178 0 1.782.843 1.782 2.535 0 1.679-.604 2.528-1.782 2.528-1.193 0-1.789-.856-1.789-2.528zm1.789 2.028c.718 0 1.088-.678 1.088-2.028 0-.726-.106-1.254-.272-1.562a.881.881 0 00-.816-.466c-.732 0-1.095.671-1.095 2.028 0 1.35.363 2.028 1.095 2.028zM163.379 212.479c0-1.692.589-2.535 1.797-2.535 1.193 0 1.759.843 1.759 2.535 0 1.679-.566 2.528-1.759 2.528-1.208 0-1.797-.856-1.797-2.528zm1.789 2.028c.733 0 1.087-.678 1.087-2.028 0-.726-.09-1.254-.294-1.562-.166-.322-.423-.466-.793-.466-.732 0-1.087.671-1.087 2.028 0 1.35.355 2.028 1.087 2.028zM107.104 171.122c0-1.083.929-1.61 2.787-1.61 1.85 0 2.771.527 2.771 1.61 0 1.076-.921 1.61-2.771 1.61-1.858 0-2.787-.534-2.787-1.61zm5.037 0c0-.658-.77-.994-2.25-.994-.801 0-1.367.083-1.722.247-.34.171-.498.418-.498.74 0 .665.717 1 2.22 1 1.487 0 2.25-.329 2.25-.993zM111.808 173.698h.771v.685h-.771v-.685zM107.104 176.836c0-.459.166-.836.521-1.123.34-.288.77-.439 1.322-.439.468 0 .876.13 1.253.377.355.26.529.623.529 1.103 0 .514-.234.898-.71 1.179.74 0 1.276-.11 1.608-.309.355-.226.521-.5.521-.843 0-.452-.309-.726-.883-.822l.06-.589c.423.055.755.192.989.438.257.24.355.569.355.953 0 .555-.226.987-.687 1.309-.506.308-1.215.459-2.242.459-1.76-.007-2.636-.562-2.636-1.693zm2.704.754a.87.87 0 00.339-.699.934.934 0 00-.332-.713c-.234-.185-.521-.28-.876-.28-.332 0-.649.095-.906.28a.868.868 0 00-.362.727c0 .281.09.514.332.685.249.171.551.26.921.26.362.007.657-.089.884-.26zM108.682 179.152l.068.63c-.294 0-.551.069-.777.233-.212.158-.31.398-.31.74 0 .24.06.453.227.644.166.185.4.288.694.288.227 0 .484-.082.771-.253.279-.178.687-.548 1.2-1.131.755-.843 1.45-1.254 2.016-1.254v3.269h-.634v-2.433c-.204.117-.4.267-.566.432l-.484.521c-.634.698-1.11 1.11-1.404 1.253-.31.138-.604.213-.861.213-.461 0-.823-.151-1.095-.432-.294-.281-.423-.651-.423-1.103 0-.987.529-1.528 1.578-1.617zM112.141 184.565c0-.534-.363-.856-1.05-.966l.068-.63c.461.041.846.205 1.11.486.257.295.393.658.393 1.11 0 .343-.068.637-.227.891a1.85 1.85 0 01-.732.589 2.319 2.319 0 01-.982.206c-.506 0-.921-.137-1.276-.432a1.416 1.416 0 01-.506-1.103c0-.329.144-.631.355-.939l-1.472.274v1.973h-.627v-2.459l2.794-.48.098.569c-.363.205-.529.5-.529.897 0 .329.106.576.333.775.234.191.528.287.898.287.355 0 .665-.096.921-.274.265-.185.431-.452.431-.774zM107.104 47.928c0-1.083.929-1.617 2.787-1.617 1.85 0 2.771.534 2.771 1.617 0 1.069-.921 1.61-2.771 1.61-1.858 0-2.787-.541-2.787-1.61zm5.037 0c0-.665-.77-.994-2.25-.994-.801 0-1.367.09-1.722.247-.34.164-.498.418-.498.726 0 .672.717 1 2.22 1 1.487 0 2.25-.321 2.25-.98zM111.808 50.49h.771v.692h-.771v-.692zM107.104 53.628c0-.452.166-.829.521-1.117.34-.301.77-.438 1.322-.438.468 0 .876.13 1.253.377.355.253.529.616.529 1.09 0 .527-.234.917-.71 1.185.74 0 1.276-.11 1.608-.322.355-.213.521-.494.521-.843 0-.439-.309-.713-.883-.816l.06-.582c.423.041.755.192.989.445.257.24.355.562.355.946 0 .548-.226.987-.687 1.295-.506.322-1.215.48-2.242.48-1.76.006-2.636-.555-2.636-1.7zm2.704.768c.211-.185.339-.411.339-.706 0-.301-.128-.528-.332-.72a1.437 1.437 0 00-.876-.267c-.332 0-.649.096-.906.281a.855.855 0 00-.362.72c0 .28.09.507.332.692.249.171.551.267.921.267.362 0 .657-.082.884-.267zM111.378 57.123l-.483.528c-.635.685-1.11 1.103-1.405 1.24-.309.144-.604.219-.861.219-.46 0-.823-.15-1.095-.432-.294-.294-.422-.664-.422-1.117 0-.986.528-1.507 1.578-1.603l.068.617c-.295 0-.552.089-.778.24-.211.15-.31.397-.31.726 0 .24.061.459.227.65a.9.9 0 00.695.295c.226 0 .483-.089.77-.26.279-.164.687-.534 1.2-1.117.756-.85 1.45-1.274 2.017-1.274v3.275h-.635v-2.432c-.204.116-.4.267-.566.445zM108.947 61.515c0-.33.143-.644.355-.939l-1.473.26v1.967h-.627v-2.46l2.794-.48.099.576c-.363.206-.529.5-.529.904 0 .322.106.576.332.775.234.185.529.28.899.28.355 0 .664-.082.921-.28a.874.874 0 00.438-.775c0-.534-.363-.85-1.05-.945l.068-.644c.461.041.846.199 1.11.493.257.281.393.651.393 1.09 0 .356-.068.65-.227.897a1.942 1.942 0 01-.732.583c-.294.144-.627.219-.982.219-.506 0-.921-.15-1.276-.439-.34-.267-.513-.63-.513-1.082zM109.249 4.104c.257.5.8.905 1.593 1.24v.59c-.543-.185-.989-.418-1.359-.733v3.87h-.672V4.105h.438zM105.987 8.38h.74v.692h-.74V8.38zM102.159 9.072V7.893h-.718v-.569h.718v-3.2h.543l2.522 3.2v.57h-2.386v1.178h-.679zm2.401-1.748l-1.714-2.226v2.226h1.714zM100.709 5.536l-.687.062c0-.267-.098-.5-.257-.706-.173-.185-.438-.295-.792-.295-.272 0-.506.083-.733.233-.204.137-.294.357-.294.624 0 .205.06.432.256.678.174.26.604.617 1.254 1.103.921.7 1.382 1.309 1.382 1.83h-3.61v-.59h2.688a2.114 2.114 0 00-.483-.5l-.589-.438c-.732-.576-1.193-1.007-1.36-1.281a1.531 1.531 0 01-.233-.795c0-.405.166-.733.46-.987.333-.253.733-.377 1.231-.377 1.08.007 1.684.487 1.767 1.44zM93.143 4.186h2.711l.529 2.542-.634.076c-.204-.309-.567-.473-.99-.473-.355 0-.634.096-.838.308-.211.192-.31.46-.31.802 0 .322.091.603.295.843.189.24.483.363.853.363.59 0 .922-.315 1.035-.932l.717.062c-.068.424-.226.746-.566 1.007-.295.24-.695.37-1.193.37a2 2 0 01-.99-.233 1.654 1.654 0 01-.634-.644 1.784 1.784 0 01-.234-.877c0-.473.151-.857.483-1.158.318-.309.718-.46 1.201-.46.363 0 .71.11 1.035.316l-.31-1.33h-2.175v-.582h.015zM15.932 341.723l.528.493-.528.48-.544-.486.544-.487zM9.77 341.298l4.259.658.446.391-1.7 1.527.93.843-.461.425-.921-.836-.544.473-.423-.384.506-.479-2.492-2.268.4-.35zm2.583 2.186l1.2-1.103-2.952-.48 1.752 1.583zM40.606 313.268l.295-.267c.589.178 1.284.13 2.1-.137l.46.424c-.521.213-1.027.329-1.526.329l3.013 2.741-.46.432-3.882-3.522zM42.48 318.626l-.544-.487.543-.493.521.493-.52.487zM134.996 226.203l.521.486-.521.487-.543-.487.543-.486zM129.167 225.442c.823-.774 1.911-.555 3.209.651 1.322 1.186 1.556 2.159.733 2.926-.846.761-1.926.534-3.247-.651-1.291-1.192-1.533-2.172-.695-2.926zm3.542 3.214c.543-.459.249-1.179-.778-2.131-.589-.514-1.065-.829-1.427-.932-.363-.109-.71-.034-.944.192-.521.459-.257 1.185.815 2.145 1.05.952 1.813 1.192 2.334.726zM72.674 293.083l.521.486-.521.487-.551-.487.551-.486zM192.947 29.264V16.136H189.292c-.173 0-.309-.117-.309-.26 0-.145.128-.268.309-.268h3.247l-.204-.192a.269.269 0 010-.356c.121-.103.295-.103.401 0l.211.192V11.093c0-.137.128-.254.287-.254.166 0 .294.117.294.254v4.522h1.677c.166 0 .294.123.294.267 0 .137-.128.26-.294.26h-1.284l.204.192c.068.048.106.11.106.185 0 .062-.038.13-.106.179a.289.289 0 01-.393 0l-.204-.192v12.771c0 .151-.128.26-.294.26-.159-.013-.287-.123-.287-.273zM208.765 29.264V16.136h-1.699c-.143 0-.272-.117-.272-.26 0-.144.129-.268.272-.268h1.307l-.235-.192a.269.269 0 010-.356.3.3 0 01.401 0l.226.192v-2.165c-.498-.384-.793-1.09-.793-2.186 0-1.679.589-2.535 1.782-2.535s1.782.856 1.782 2.535c0 1.679-.589 2.528-1.782 2.528-.166 0-.294-.055-.422-.089v2.275h3.677c.128 0 .257.123.257.267 0 .137-.129.26-.257.26h-3.277l.211.192a.26.26 0 01.068.185c0 .062-.023.13-.068.179a.298.298 0 01-.4 0l-.211-.192v12.771c0 .151-.129.26-.31.26a.28.28 0 01-.257-.273zm.997-16.342c.732 0 1.087-.671 1.087-2.021 0-.726-.09-1.254-.272-1.562-.188-.309-.445-.46-.815-.46-.733 0-1.087.672-1.087 2.022 0 .384.022.685.098.966v-.774c0-.137.121-.254.256-.254.174 0 .31.117.31.254v1.726a.93.93 0 00.423.103zM206.16 12.649h.771v.692h-.771v-.692zM202.181 13.018c-.4-.26-.566-.644-.566-1.144 0-.665.332-1.069.989-1.213-.498-.219-.732-.548-.732-1.007 0-.336.143-.63.4-.89.294-.275.687-.405 1.193-.405.438 0 .8.117 1.087.343.272.233.483.548.567.952l-.688.096c-.098-.582-.438-.877-.966-.877-.272 0-.483.062-.665.206a.76.76 0 00-.234.555c0 .205.038.363.174.493a.95.95 0 00.415.267c.144.048.363.062.612.062l.083.534a2.374 2.374 0 00-.483-.062c-.295 0-.567.083-.771.275a.902.902 0 00-.286.685c0 .301.098.541.332.74.189.198.445.294.778.294.566 0 .928-.322 1.064-.973l.687.083c-.045.425-.226.76-.551 1.014-.332.253-.717.377-1.193.377-.438.006-.853-.13-1.246-.405zM197.379 10.901c0-1.679.604-2.535 1.782-2.535s1.782.856 1.782 2.535c0 1.679-.604 2.528-1.782 2.528s-1.782-.85-1.782-2.528zm1.782 2.021c.717 0 1.087-.671 1.087-2.021 0-.726-.083-1.254-.271-1.562-.174-.309-.446-.46-.801-.46-.717 0-1.095.672-1.095 2.022 0 1.35.348 2.021 1.08 2.021zM224.84 48.147c-1.842 0-2.771-.548-2.771-1.617 0-1.083.929-1.624 2.771-1.624 1.881 0 2.787.541 2.787 1.624 0 1.069-.914 1.617-2.787 1.617zm0-2.617c-.815 0-1.381.096-1.714.26-.362.165-.528.418-.528.733 0 .658.77 1 2.242 1 1.511 0 2.228-.328 2.228-.993 0-.671-.717-1-2.228-1zM226.773 49.106h.756v.685h-.756v-.685zM227.068 52.176c0-.46-.295-.727-.861-.822l.068-.576c.438.041.755.199.989.439.227.233.355.548.355.952 0 .548-.226.994-.717 1.295-.468.322-1.193.473-2.228.473-1.736 0-2.605-.555-2.605-1.7 0-.459.174-.835.506-1.123.332-.288.793-.432 1.306-.432.461 0 .884.13 1.261.377.378.247.529.623.529 1.09 0 .52-.227.917-.71 1.192.74 0 1.276-.11 1.609-.322.332-.22.498-.5.498-.843zm-2.326.822a.839.839 0 00.332-.699.882.882 0 00-.332-.726c-.204-.185-.483-.281-.823-.281-.362 0-.664.096-.921.288-.272.185-.4.425-.4.726 0 .28.128.5.362.678.227.178.529.26.884.26.37.014.664-.068.898-.246zM227.068 56.123c0-.535-.332-.864-1.027-.953l.068-.637c.461.048.815.206 1.087.486.295.288.423.651.423 1.104 0 .335-.09.644-.257.89a1.73 1.73 0 01-.687.596 2.313 2.313 0 01-1.004.206c-.498 0-.929-.144-1.261-.432a1.412 1.412 0 01-.498-1.11c0-.322.105-.637.339-.931l-1.465.267v1.973h-.626v-2.46l2.771-.48.091.576c-.363.199-.529.493-.529.905 0 .328.106.575.332.767.234.192.544.288.899.288.34 0 .672-.082.944-.281a.909.909 0 00.4-.774zM227.529 187.1h-5.467v-.404c.528-.233 1.004-.72 1.359-1.425h.634c-.211.479-.468.89-.8 1.213h4.274v.616zM226.773 188.998h.756v.685h-.756v-.685zM222.062 192.629l3.541-2.261h.634v2.152h1.284v.603h-1.284v.664h-.634v-.664h-3.541v-.494zm3.541-.102v-1.556l-2.454 1.556h2.454zM224.84 197.645c-1.842 0-2.771-.535-2.771-1.617 0-1.069.929-1.617 2.771-1.617 1.881 0 2.787.548 2.787 1.617 0 1.082-.914 1.617-2.787 1.617zm0-2.604c-.815 0-1.381.082-1.714.247-.362.178-.528.411-.528.74 0 .671.77.993 2.242.993 1.511 0 2.228-.322 2.228-.986 0-.658-.717-.994-2.228-.994z"
        fill="#414042" />
    <path
        d="M230.043 78.918v-1.172l-.234.2c-.098.095-.295.095-.393 0a.255.255 0 010-.37l.234-.193h-17.97c-.174 0-.272-.11-.272-.26 0-.137.091-.26.272-.26h18.355V36.705h-7.845c-.166 0-.256-.117-.256-.26 0-.151.098-.254.256-.254h7.845V32.278l-.234.192a.288.288 0 01-.392 0c-.106-.11-.106-.267 0-.356l.234-.206h-17.971c-.173 0-.271-.11-.271-.26 0-.137.09-.253.271-.253h18.356v-1.542c0-.137.128-.26.256-.26.167 0 .31.116.31.26v1.178l.189-.191c.143-.11.309-.11.438 0 .022.04.06.102.06.184 0 .062-.038.117-.06.179l-.234.198h4.606c.166 0 .271.117.271.254 0 .144-.105.26-.271.26h-4.984v4.282h25.076c.166 0 .309.103.309.254 0 .137-.143.26-.309.26h-25.076v39.802l.189-.199c.143-.102.31-.102.438 0 .023.048.06.11.06.185 0 .062-.037.13-.06.178l-.234.192h4.606c.166 0 .271.117.271.26 0 .151-.105.261-.271.261h-4.999v1.535c0 .137-.143.26-.309.26-.129-.013-.257-.13-.257-.267zM230.043 230.101v-1.164l-.234.198c-.098.089-.295.089-.393 0-.106-.102-.106-.267 0-.356l.234-.205h-17.97c-.174 0-.272-.11-.272-.254 0-.144.091-.26.272-.26h18.355v-23.899h-7.845c-.166 0-.256-.11-.256-.254 0-.137.098-.26.256-.26h7.845v-42.172l-.234.191a.287.287 0 01-.392 0c-.106-.082-.106-.26 0-.356l.234-.199h-17.971c-.173 0-.271-.116-.271-.253 0-.144.09-.26.271-.26h18.356v-1.528a.27.27 0 01.256-.268c.167 0 .31.117.31.268v1.164l.189-.191c.143-.103.309-.103.438 0a.43.43 0 01.06.185c0 .061-.038.13-.06.171l-.234.205h4.606c.166 0 .271.117.271.261 0 .137-.105.253-.271.253h-4.984v42.536h25.076c.166 0 .309.13.309.26 0 .151-.143.254-.309.254h-25.076v23.535l.189-.205a.42.42 0 01.438 0c.023.061.06.13.06.192 0 .061-.037.13-.06.185l-.234.191h4.606c.166 0 .271.11.271.261 0 .151-.105.253-.271.253h-4.999v1.535c0 .151-.143.254-.309.254-.129-.014-.257-.117-.257-.268zM275.504 36.452c0-.151.128-.254.257-.254h9.982c.129 0 .257.103.257.254 0 .137-.128.26-.257.26h-9.982c-.129-.007-.257-.123-.257-.26zM162.216 36.452a.26.26 0 01-.272.26h-6.682c-.174 0-.287-.116-.287-.26 0-.151.106-.254.287-.254h6.682c.167 0 .272.102.272.254zM262.102 36.452c0-.151.128-.254.294-.254h6.683c.174 0 .31.102.31.254 0 .137-.129.26-.31.26h-6.683c-.166-.007-.294-.123-.294-.26zM2.93 431.679v-6.084c0-.137.128-.247.271-.247.151 0 .295.11.295.247v6.084c0 .151-.144.261-.295.261-.143-.007-.271-.117-.271-.261zM2.93 419.524v-30.38c0-.137.128-.24.271-.24.151 0 .295.11.295.24v30.38c0 .137-.144.268-.295.268a.282.282 0 01-.271-.268zM2.93 383.073v-6.084c0-.144.128-.254.271-.254.151 0 .295.11.295.254v6.084c0 .137-.144.254-.295.254a.265.265 0 01-.271-.254zM2.93 140.022v-6.085c0-.137.128-.26.271-.26.151 0 .295.117.295.26v6.085c0 .137-.144.246-.295.246-.143 0-.271-.109-.271-.246zM2.93 188.621v-6.07c0-.137.128-.254.271-.254.151 0 .295.117.295.254v6.07c0 .151-.144.267-.295.267a.271.271 0 01-.271-.267zM2.93 225.093v-30.388c0-.137.128-.253.271-.253.151 0 .295.116.295.253v30.388c0 .137-.144.247-.295.247-.143 0-.271-.117-.271-.247zM2.93 91.409v-6.085c0-.137.128-.26.271-.26.151 0 .295.123.295.26v6.085c0 .144-.144.26-.295.26-.143 0-.271-.116-.271-.26zM2.93 176.48v-30.381c0-.144.128-.253.271-.253.151 0 .295.109.295.253v30.381c0 .137-.144.253-.295.253-.143 0-.271-.123-.271-.253zM3.201 273.946a.266.266 0 01-.271-.261v-30.373c0-.144.128-.254.271-.254.151 0 .295.11.295.254v30.373c0 .158-.144.261-.295.261zM2.93 237.234v-6.07c0-.137.128-.254.271-.254.151 0 .295.11.295.254v6.07c0 .151-.144.267-.295.267a.271.271 0 01-.271-.267zM3.201 279.516c.151 0 .295.117.295.261v6.084c0 .137-.144.247-.295.247-.143 0-.271-.11-.271-.247v-6.084c0-.144.128-.261.271-.261zM3.496 522.821v6.064c0 .151-.144.267-.295.267a.271.271 0 01-.271-.267v-6.064c0-.157.128-.24.271-.24.151 0 .295.089.295.24zM3.496.267v30.374c0 .144-.144.26-.295.26a.266.266 0 01-.271-.26V.267C2.93.117 3.058 0 3.2 0c.151 0 .295.123.295.267zM82.293 176.733c-.173 0-.271-.116-.271-.253v-30.381c0-.144.09-.253.271-.253.174 0 .287.109.287.253v30.381c-.007.13-.113.253-.287.253zM82.022 431.679v-6.084c0-.137.09-.247.271-.247.174 0 .287.11.287.247v6.084c0 .151-.105.261-.287.261-.18-.007-.271-.117-.271-.261zM82.022 140.022v-6.085c0-.137.09-.26.271-.26.174 0 .287.117.287.26v6.085c0 .137-.105.246-.287.246-.18 0-.271-.109-.271-.246zM82.022 480.279v-6.064c0-.151.09-.267.271-.267.174 0 .287.116.287.267v6.064c0 .144-.105.267-.287.267-.18.007-.271-.116-.271-.267zM82.022 468.124v-.809H61.514c-.166 0-.294-.123-.294-.274 0-.151.128-.233.294-.233h20.508v-29.051c0-.137.09-.26.271-.26.174 0 .287.116.287.26v29.051H95.01c.128 0 .256.082.256.233 0 .151-.128.274-.256.274H82.58v.809c0 .151-.105.267-.287.267-.18 0-.271-.116-.271-.267zM82.022 91.409v-6.085c0-.137.09-.26.271-.26.174 0 .287.123.287.26v6.085c0 .144-.105.26-.287.26-.18 0-.271-.116-.271-.26zM82.022 528.885v-6.064c0-.157.09-.24.271-.24.174 0 .287.089.287.24v6.064c0 .151-.105.267-.287.267-.18.007-.271-.116-.271-.267zM82.022 127.867V97.493c0-.15.09-.26.271-.26.174 0 .287.11.287.26v30.374c0 .137-.105.26-.287.26-.18 0-.271-.116-.271-.26zM82.022 516.757v-30.38c0-.144.09-.274.271-.274.174 0 .287.13.287.274v30.38c0 .117-.105.247-.287.247-.18 0-.271-.13-.271-.247zM82.022 188.621v-6.07c0-.137.09-.254.271-.254.174 0 .287.117.287.254v6.07c0 .151-.105.267-.287.267-.18 0-.271-.116-.271-.267zM82.022 79.26V48.874c0-.137.09-.26.271-.26.174 0 .287.117.287.26v30.388c0 .15-.105.26-.287.26-.18-.007-.271-.116-.271-.26zM82.022 419.524v-30.38c0-.137.09-.24.271-.24.174 0 .287.11.287.24v30.38c0 .137-.105.268-.287.268-.18 0-.271-.131-.271-.268zM82.022 383.073v-6.084c0-.144.09-.254.271-.254.174 0 .287.11.287.254v6.084c0 .137-.105.254-.287.254-.18.007-.271-.117-.271-.254zM82.022 370.918v-30.373c0-.144.09-.261.271-.261.174 0 .287.11.287.261v30.373c0 .144-.105.261-.287.261-.18 0-.271-.117-.271-.261zM82.022 285.854v-6.084c0-.137.09-.261.271-.261.174 0 .287.117.287.261v6.084c0 .137-.105.247-.287.247-.18 0-.271-.11-.271-.247zM55.647 468.124v-30.367c0-.137.129-.26.287-.26.174 0 .31.116.31.26v30.367c0 .151-.128.267-.31.267-.158 0-.287-.116-.287-.267zM56.237 231.164v6.07c0 .151-.129.267-.31.267-.151 0-.287-.116-.287-.267v-6.07c0-.137.128-.254.287-.254.181 0 .31.11.31.254zM55.647 127.867v-27.722l-3.752.301c-2.175.172-4.251-.767-5.369-2.446-4.145-6.118-4.145-13.703 0-19.822 1.118-1.685 3.194-2.624 5.369-2.439l3.752.288V48.873c0-.137.129-.26.287-.26.174 0 .31.117.31.26v27.195l9.453.747c1.465.123 2.741.72 3.685 1.61l1.132-.699.876-.548 1.488-.932c.143-.075.294-.055.4.062 2.688 3.576 4.032 7.674 4.032 11.778 0 4.09-1.344 8.188-4.032 11.758-.106.123-.257.157-.4.075L71.39 99l-.876-.548-1.132-.713a6.037 6.037 0 01-3.685 1.61l-9.453.747v27.763c0 .137-.128.261-.31.261-.158.006-.287-.11-.287-.254zm-3.79-51.628c-1.986-.157-3.82.685-4.863 2.206-4.032 5.948-4.032 13.334 0 19.281 1.042 1.508 2.877 2.357 4.863 2.213l3.79-.308v-.438l-3.835.301c-1.767.137-3.466-.63-4.387-2-3.926-5.804-3.926-13.012 0-18.816.921-1.37 2.62-2.13 4.387-2l3.835.301v-.445l-3.79-.295zm4.38 21.254v1.138l9.294-.733c2.137-.165 3.76-1.761 3.76-3.714V81.98c0-1.946-1.63-3.535-3.76-3.707l-9.295-.733v1.713c0 .15-.128.26-.31.26-.15 0-.286-.11-.286-.26V77.5l-3.881-.315c-1.556-.117-3.043.555-3.858 1.76-3.821 5.633-3.821 12.649 0 18.281.815 1.206 2.302 1.87 3.858 1.754l3.88-.308v-1.185c0-.151.13-.26.288-.26.181.006.31.116.31.266zm14.678-15.512v12.203c0 1.199-.46 2.288-1.216 3.159l.883.534c4.365-5.975 4.365-13.608 0-19.582l-.883.534c.755.877 1.216 1.96 1.216 3.152zm.536 16.437c4.636-6.31 4.636-14.354 0-20.658l-.393.247c2.243 3.083 3.36 6.57 3.36 10.086 0 3.501-1.125 7.002-3.36 10.085l.393.24zm1.495-21.59l-1.035.63c2.371 3.249 3.564 6.935 3.564 10.635 0 3.686-1.193 7.38-3.564 10.62l1.035.644c5.051-6.872 5.051-15.663 0-22.528zM65.644 98.85c2.68-.206 4.72-2.213 4.72-4.666V81.98c0-2.432-2.04-4.447-4.72-4.66l-9.4-.746v.452l9.355.74c2.416.192 4.274 2 4.274 4.214v12.203c0 2.213-1.85 4.036-4.274 4.22l-9.355.747v.453l9.4-.754zM55.647 176.48v-30.381c0-.144.129-.253.287-.253.174 0 .31.109.31.253v30.381c0 .137-.128.253-.31.253-.158 0-.287-.123-.287-.253z"
        fill="#414042" />
    <path
        d="M55.647 91.409v-6.085c0-.137.129-.26.287-.26.174 0 .31.123.31.26v6.085c0 .144-.128.26-.31.26-.158 0-.287-.116-.287-.26zM56.237.267v30.374c0 .144-.129.26-.31.26-.151 0-.287-.11-.287-.26V.267c0-.15.128-.267.287-.267.181 0 .31.123.31.267zM55.647 480.279v-6.064c0-.151.129-.267.287-.267.174 0 .31.116.31.267v6.064c0 .144-.128.267-.31.267a.27.27 0 01-.287-.267zM55.647 140.022v-6.085c0-.137.129-.26.287-.26.174 0 .31.117.31.26v6.085c0 .137-.128.246-.31.246-.158 0-.287-.109-.287-.246zM55.647 383.073v-6.084c0-.144.129-.254.287-.254.174 0 .31.11.31.254v6.084c0 .137-.128.254-.31.254-.158.007-.287-.117-.287-.254zM55.647 419.524v-30.38c0-.137.129-.24.287-.24.174 0 .31.11.31.24v30.38c0 .137-.128.268-.31.268-.158 0-.287-.131-.287-.268zM55.647 516.757v-30.38c0-.144.129-.274.287-.274.174 0 .31.13.31.274v30.38c0 .117-.128.247-.31.247-.158 0-.287-.13-.287-.247zM55.647 528.885v-6.064c0-.157.129-.24.287-.24.174 0 .31.089.31.24v6.064c0 .151-.128.267-.31.267a.27.27 0 01-.287-.267zM55.647 188.621v-6.07c0-.137.129-.254.287-.254.174 0 .31.117.31.254v6.07c0 .151-.128.267-.31.267-.158 0-.287-.116-.287-.267zM55.647 431.679v-6.084c0-.137.129-.247.287-.247.174 0 .31.11.31.247v6.084c0 .151-.128.261-.31.261-.158-.007-.287-.117-.287-.261zM134.74 528.885v-6.064c0-.157.128-.24.286-.24.167 0 .272.089.272.24v6.064c0 .151-.105.267-.272.267a.27.27 0 01-.286-.267zM134.74 516.757v-30.38c0-.144.128-.274.286-.274.167 0 .272.13.272.274v30.38c0 .117-.105.247-.272.247-.158 0-.286-.13-.286-.247zM134.74 480.279v-6.064c0-.151.128-.267.286-.267.167 0 .272.116.272.267v6.064a.261.261 0 01-.272.267.27.27 0 01-.286-.267zM134.74 334.453v-6.07c0-.151.128-.261.286-.261.167 0 .272.11.272.261v6.07a.266.266 0 01-.272.268c-.158 0-.286-.131-.286-.268zM134.74 322.305v-30.38c0-.131.128-.261.286-.261.167 0 .272.13.272.261v30.38c0 .144-.105.254-.272.254-.158 0-.286-.11-.286-.254zM134.74 370.918v-30.373c0-.144.128-.261.286-.261.167 0 .272.11.272.261v30.373c0 .144-.105.261-.272.261-.158 0-.286-.117-.286-.261zM134.74 383.073v-6.084c0-.144.128-.254.286-.254.167 0 .272.11.272.254v6.084c0 .137-.105.254-.272.254-.158.007-.286-.117-.286-.254zM134.74 419.524v-30.38c0-.137.128-.24.286-.24.167 0 .272.11.272.24v30.38a.266.266 0 01-.272.268c-.158 0-.286-.131-.286-.268zM134.74 431.679v-6.084c0-.137.128-.247.286-.247.167 0 .272.11.272.247v6.084c0 .151-.105.261-.272.261-.158-.007-.286-.117-.286-.261zM135.291 9.805v.699c.483.096.823.418.944.836h.77c.151 0 .287.116.287.26 0 .144-.129.267-.287.267h-.77c-.121.418-.461.74-.944.836V30.655c0 .143-.106.26-.272.26-.151 0-.287-.11-.287-.26V12.696c-.468-.096-.838-.418-.929-.836H82.573v18.78c0 .145-.106.261-.287.261-.174 0-.272-.11-.272-.26V11.867H60.556l.233.192c.06.041.084.117.084.185 0 .069-.023.13-.084.171a.284.284 0 01-.4 0l-.234-.185v17.041c0 .15-.105.26-.256.26-.167 0-.295-.11-.295-.26V11.867H57.92c-.166 0-.294-.123-.294-.267 0-.137.128-.26.294-.26h1.284l-.212-.192a.24.24 0 010-.357c.121-.102.272-.102.4 0l.212.2V6.81c0-.13.128-.247.295-.247a.25.25 0 01.256.247v4.529H82.022V.267c0-.15.09-.267.271-.267.174 0 .287.116.287.267V11.34h51.231c.098-.418.461-.74.929-.836V.267c0-.15.128-.267.287-.267.166 0 .271.116.271.267v9.538h-.007zm0 1.206v.329h.355a.721.721 0 00-.355-.33zm.355.85h-.355v.328a.72.72 0 00.355-.329zm-.906.328v-.329h-.363a.677.677 0 00.363.33zm-.37-.85h.362v-.328a.733.733 0 00-.362.329zM7.671 203.901c0-.137.129-.261.272-.261H41.43c.143 0 .272.131.272.261 0 .151-.129.254-.272.254H7.943a.256.256 0 01-.272-.254zM47.81 203.901c0-.137.143-.261.31-.261h6.674c.167 0 .31.131.31.261 0 .151-.143.254-.31.254H48.12c-.166.007-.31-.103-.31-.254zM262.102 203.901c0-.137.128-.261.294-.261h6.683c.174 0 .31.131.31.261 0 .151-.129.254-.31.254h-6.683c-.166.007-.294-.103-.294-.254zM275.504 203.901c0-.137.128-.261.257-.261h9.982c.129 0 .257.131.257.261a.257.257 0 01-.257.254h-9.982a.252.252 0 01-.257-.254zM154.982 203.901c0-.137.106-.261.287-.261h6.683c.166 0 .272.131.272.261 0 .151-.106.254-.272.254h-6.683c-.173.007-.287-.103-.287-.254zM221.934 251.747c0-.138.098-.261.256-.261h33.487c.166 0 .31.117.31.261 0 .137-.144.254-.31.254H222.19a.247.247 0 01-.256-.254zM262.102 251.747c0-.138.128-.261.294-.261h6.683c.174 0 .31.117.31.261 0 .137-.129.254-.31.254h-6.683c-.166 0-.294-.117-.294-.254zM208.546 251.747c0-.138.128-.261.287-.261h6.69c.128 0 .272.117.272.261 0 .137-.144.254-.272.254h-6.69c-.159 0-.287-.117-.287-.254zM55.104 251.747c0 .137-.143.254-.31.254H48.12c-.166 0-.31-.117-.31-.254 0-.138.144-.261.31-.261h6.675c.167 0 .31.123.31.261zM275.504 251.747c0-.138.128-.261.257-.261h9.982c.129 0 .257.117.257.261a.267.267 0 01-.257.254h-9.982a.267.267 0 01-.257-.254zM101.396 323.512c0-.138.128-.254.287-.254h6.705c.144 0 .279.116.279.254 0 .144-.143.26-.279.26h-6.705c-.159 0-.287-.116-.287-.26zM221.934 323.512c0-.138.098-.254.256-.254h33.487c.166 0 .31.116.31.254 0 .144-.144.26-.31.26H222.19c-.158 0-.256-.116-.256-.26zM208.546 323.512c0-.138.128-.254.287-.254h6.69c.128 0 .272.116.272.254 0 .144-.144.26-.272.26h-6.69c-.159 0-.287-.116-.287-.26zM275.504 323.511c0-.137.128-.253.257-.253h9.982c.129 0 .257.116.257.253a.267.267 0 01-.257.261h-9.982a.267.267 0 01-.257-.261zM262.102 323.512c0-.138.128-.254.294-.254h6.683c.174 0 .31.116.31.254 0 .144-.129.26-.31.26h-6.683c-.166 0-.294-.116-.294-.26zM262.102 467.041c0-.151.128-.233.294-.233h6.683c.174 0 .31.082.31.233 0 .151-.129.275-.31.275h-6.683c-.166 0-.294-.124-.294-.275zM275.504 467.041c0-.151.128-.233.257-.233h9.982c.129 0 .257.082.257.233 0 .151-.128.275-.257.275h-9.982c-.129 0-.257-.124-.257-.275zM221.934 467.041c0-.151.098-.233.256-.233h33.487c.166 0 .31.082.31.233 0 .151-.144.275-.31.275H222.19c-.158 0-.256-.124-.256-.275zM55.104 467.041c0 .151-.143.275-.31.275H48.12c-.166 0-.31-.124-.31-.275 0-.151.144-.233.31-.233h6.675c.167 0 .31.082.31.233zM101.396 467.041c0-.151.128-.233.287-.233h6.705c.144 0 .279.082.279.233 0 .151-.143.275-.279.275h-6.705a.281.281 0 01-.287-.275zM134.74 544.993v-10.01c0-.151.128-.267.286-.267.167 0 .272.116.272.267V545h-.558v-.007zM82.022 544.993v-10.01c0-.151.09-.267.271-.267.174 0 .287.116.287.267V545h-.558v-.007zM55.647 544.993v-10.01c0-.151.129-.267.287-.267.174 0 .31.116.31.267V545h-.597v-.007zM2.93 544.993v-10.01c0-.151.128-.267.271-.267.151 0 .295.116.295.267V545H2.93v-.007zM1.238 282.01l1.495 1.35a.352.352 0 01.068.185.37.37 0 01-.068.185l-2.726 2.48v-.733l2.122-1.925-1.087-.98-1.035.946v-.733l.839-.761c.113-.11.279-.11.392-.014zM1.51 323.512c0 .144-.09.26-.272.26H.008v-.514h1.23c.182 0 .272.116.272.254zM1.51 467.042c0 .151-.09.274-.272.274H.008v-.508h1.23c.182 0 .272.083.272.234z"
        fill="#414042" />
    <path
        d="M.015 512.256h.8v-.206c0-.151.144-.274.295-.274h1.82v-1.377H.015v-.548H2.93v-4.262H.015v-.966l2.394-2.158v-.953l-2.394 2.152v-.727l2.349-2.124H1.29l-1.276 1.138v-.726l.46-.412h-.46v-.5H2.93v-4.296H.015v-.637l2.915-2.631v-.966l-2.915 2.624v-.719l2.915-2.652v-.966l-2.915 2.651v-.733l2.915-2.631v-.959l-2.915 2.631v-.719l2.915-2.631v-.987l-2.915 2.652v-.72l2.915-2.651v-.96l-2.915 2.652v-.74l2.915-2.638v-.952l-2.915 2.631v-.72l2.915-2.631v-.993l-2.915 2.651v-.719l2.915-2.652v-.959l-2.915 2.631v-.719l2.915-2.631v-.967l-2.915 2.632v-.727l2.915-2.631v-.952L.015 479.21v-.726l2.915-2.652v-.966l-2.915 2.631v-.726l2.915-2.631v-.966l-2.915 2.631v-.72l2.915-2.631v-.37h-.695l-2.22 2.021v-.719l1.427-1.302H.378l-.363.336v-.843H8.2v-4.262h-.257a.278.278 0 01-.271-.274c0-.151.128-.233.271-.233H8.2v-4.303H3.49v5.619c0 .151-.144.267-.295.267a.271.271 0 01-.272-.267v-5.619H.008v-1.151l.55-.486 2.364-2.165v-1.11l-2.71-2.46-.204.185v-1.083l.4.363 2.514 2.268v-19.109c0-.137.129-.26.272-.26.151 0 .295.116.295.26v19.616l.664.603 4.53 4.118a.257.257 0 01.083.178v4.543H41.43c.144 0 .272.082.272.233a.278.278 0 01-.272.274H8.766V500.553c0 .151-.128.267-.286.267H3.489v10.963h50.34c.143 0 .271.123.271.274v1.919a44.192 44.192 0 01-2.68 11.737c-.023.15-.204.205-.355.185-.144-.062-.227-.206-.166-.329a44.944 44.944 0 002.62-11.347H3.489v2.549c0 .117-.144.247-.295.247-.143 0-.272-.13-.272-.247v-4.474H1.374v.233c0 .13-.128.253-.271.253H.008v-.527h.007zm2.394-9.072l-2.092 1.898h1.065l1.027-.925v-.973zm0 1.686l-.234.205h.234v-.205zm.52-11.415l-2.257 2.048h1.065l1.193-1.082v-.966zm0 1.685l-.392.363h.393v-.363zm0-35.697l-.15.123h.15v-.123zm0 .671h-.716l-.756.651H2.93v-.651zm0 1.165H.892l-.755.685H2.93v-.685zm.567-3.179v.089l.06-.034-.06-.055zm.128.808h-.128v.665h.884l-.756-.665zm1.322 1.206h-1.45v.651h2.22l-.77-.651zm1.321 1.165h-2.77v.685h3.54l-.77-.685zm-2.77 52.416h50.052v-1.412H3.496v1.412zm4.175-21.165l-3.292 2.973h1.087l2.205-2.014v-.959zm0 1.713l-1.405 1.26h1.05l.355-.301v-.959zm-4.176 6.07h4.712v-4.296H3.504v4.296h-.008zm0-4.81h.098l4.085-3.693v-.966l-4.175 3.789v.87h-.008zm0-1.596l4.176-3.782v-.96l-4.176 3.783v.959zm0-1.672l4.176-3.823v-.959l-4.176 3.782v1zm0-1.713l4.176-3.789v-.959l-4.176 3.782v.966zm0-1.679l4.176-3.782v-1l-4.176 3.816v.966zm0-2.466v.774l4.176-3.81v-.952l-4.176 3.81v.178zm0-.925l4.176-3.782v-.966l-4.176 3.782v.966zm0-1.686l4.176-3.789v-.979l-4.176 3.809v.959zm0-1.678l4.176-3.824v-.952l-4.176 3.782v.994zm0-1.809v.089l4.176-3.782v-.966l-4.176 3.782v.877zm0-1.59l4.176-3.782v-.994l-4.176 3.81v.966zm0-1.679l4.176-3.809v-.966l-4.176 3.789v.986zm0-1.712l3.541-3.214H5.973l-2.477 2.247v.967zm0-1.679l1.684-1.528H4.115l-.626.569v.959h.007zM29.96 376.468l-3.714-3.385v-.013L6.494 355.187l-1.178 1.082-1.39 1.268-.422.397v12.984c0 .144-.144.261-.295.261a.266.266 0 01-.272-.261v-12.477l-2.914 2.645v-.726l2.914-2.645v-5.79l-2.914-2.638v-.726l2.914 2.652v-10.668c0-.144.129-.261.272-.261.151 0 .295.11.295.261v11.175l2.997 2.747 1.23-1.089c.122-.11.28-.11.416 0a.295.295 0 01.068.185c0 .061-.038.123-.068.178l-.929.836h.31c.166 0 .294.109.294.247 0 .15-.128.26-.294.26h-.31l.4.37.53.459 2.31 2.11 1.087.987 1.616-1.466-5.052-10.71c-.098-.13-.15-.274-.203-.404l-.839-1.768-.566.507-.46-.404.77-.678-4.591-9.73-2.197 1.987v-1.397l.483-.446H.023v-.507h1.05l.754-.685H.023v-.521h2.37l.544-.486v-.192H.023v-.514h2.914v-.678H.023v-.507h2.914v-.699H.612l-.59.548v-1.405l.333-.301H.023v-.507h8.185v-.898c0-.027-.046-.041-.046-.075 0-.034.046-.048.046-.075v-1.042c0-.034-.046-.041-.046-.075 0-.028.046-.055.046-.076v-1.048c0-.034-.046-.048-.046-.075 0-.035.046-.055.046-.076v-.835H7.95a.266.266 0 01-.272-.261c0-.137.128-.253.272-.253h.257v-.891c0-.034-.046-.055-.046-.075 0-.014.015-.014.015-.021 0-.041.038-.069.038-.103v-3.172H3.504v3.316c0 .144-.144.254-.295.254-.143 0-.272-.11-.272-.254v-3.316H.023v-.528h2.914v-8.112c-.46-.096-.823-.418-.92-.843H.015v-.5h2c.098-.445.46-.754.921-.863v-16.232c0-.13.129-.261.272-.261.151 0 .295.131.295.261v16.232c.475.109.823.418.928.863h.755c.166 0 .295.103.295.24 0 .15-.129.26-.295.26h-.755c-.105.425-.46.747-.928.843v8.112h4.99c.151 0 .287.117.287.267v2.172l29.062-26.386 3.738-3.384 1.85-1.693 1.88-1.678 24.222-21.994v-.014l1.88-1.679 10.616-9.647v-2.439h-2.914l-1.065.966c-.74.685-1.955.685-2.725 0l-1.065-.966h-2.145L56.91 265.806c-.19.185-.446.295-.665.384v7.495c0 .151-.128.261-.31.261-.15 0-.286-.11-.286-.261v-7.386c-.521.021-1.088-.13-1.488-.493l-15.199-13.813H7.943c-.143 0-.272-.117-.272-.254s.129-.26.272-.26h30.452L27.37 241.475c-.77-.678-.77-1.795 0-2.48l28.27-25.646v-18.657c0-.137.128-.254.286-.254.174 0 .31.117.31.254v18.136l9.544-8.681h-4.274c-.166 0-.294-.109-.294-.253 0-.137.128-.261.294-.261h4.84l25.106-22.775c.77-.678 1.985-.678 2.74 0l3.292 2.994 2.137-1.939c.733-.671 1.956-.671 2.711 0l12.745 11.573v-33.231l-.204.206a.335.335 0 01-.415 0c-.121-.11-.121-.254 0-.37l.211-.185H110.095c-.166 0-.287-.117-.287-.261 0-.144.121-.26.287-.26h4.976v-1.542c0-.137.128-.246.294-.246.151 0 .279.109.279.246v1.179l.204-.199a.336.336 0 01.416 0c.068.055.083.11.083.185 0 .062-.015.13-.083.185l-.212.192h11.054c.166 0 .272.116.272.26 0 .144-.106.261-.272.261h-11.454v34.101l8.812 8.002c.362.329.566.775.566 1.241 0 .137-.045.26-.083.383h4.507V36.711H116.573c-.106.419-.46.747-.921.836V80.09l.204-.199a.303.303 0 01.415 0c.068.041.083.11.083.185 0 .062-.015.13-.083.185l-.211.192h11.054c.166 0 .272.116.272.26 0 .151-.106.26-.272.26H115.66v1.535c0 .144-.129.254-.28.254-.166 0-.294-.11-.294-.254v-1.171l-.204.192a.335.335 0 01-.415 0 .22.22 0 010-.357l.211-.205h-4.576c-.166 0-.287-.11-.287-.26 0-.138.121-.26.287-.26h4.976v-42.9a1.171 1.171 0 01-.929-.835H82.566v6.091c0 .137-.106.26-.287.26-.174 0-.272-.116-.272-.26v-6.078c0-.014.015-.014.015-.014H56.19s.038 0 .038.014v6.078c0 .137-.128.26-.31.26-.15 0-.286-.116-.286-.26v-6.078c0-.014.022-.014.022-.014H3.481V42.803c0 .137-.143.26-.295.26-.143 0-.271-.116-.271-.26v-6.078-.014H0v-.506h14.775v-1.892H.009V33.8h14.769v-.685H.007V32.6h14.77v-.678H.007v-.507H140.298c.038 0 .06.02.091.034.022-.013.022 0 .068-.02.015 0 .022-.014.045-.014h23.09c.173-1.52 1.57-2.72 3.254-2.72 1.714 0 3.103 1.2 3.231 2.72H209.007c.174 0 .31.117.31.254v4.542h6.184c.128 0 .271.103.271.254 0 .137-.143.26-.271.26h-6.184v166.929h6.184c.128 0 .271.13.271.26 0 .151-.143.254-.271.254h-6.184v24.152c0 .144-.129.254-.31.254H193.34l-5.331 4.823v18.102h14.089c.167 0 .287.117.287.261 0 .137-.12.253-.287.253h-14.089v71.258h14.089c.167 0 .287.117.287.254 0 .144-.12.26-.287.26h-14.089v143.023h14.089c.167 0 .287.082.287.233 0 .151-.12.274-.287.274h-14.089v77.678h-.566v-77.678h-15.245v.596c.582-.233 1.238-.418 1.926-.418 2.408 0 4.402 1.802 4.402 3.995 0 2.192-1.994 3.96-4.402 3.96a4.518 4.518 0 01-1.926-.425v69.97h-.551v-70.23c-1.087-.699-1.797-1.775-1.903-3.035h-13.357V545h-.566v-73.272h-15.26V545h-.551v-73.272h-15.577l6.381 11.887c.037.062.045.09.045.124 0 .082-.045.185-.174.24-.128.061-.309 0-.362-.124l-6.584-12.251v-.027c-.023-.034-.023-.034-.023-.062l-.015-.034c0-.034.015-.034.015-.034 0-.034 0-.062.023-.062v-.02l2.174-4.05h-10.842c-.166 0-.295-.123-.295-.274 0-.151.129-.233.295-.233h11.114l4.138-7.687c.06-.117.234-.185.362-.117.129.021.174.117.174.233a.128.128 0 01-.045.089l-3.987 7.482h7.89v-29.051c0-.137.129-.261.287-.261.166 0 .272.117.272.261v29.051h4.734V323.772h-24.947c-.166 0-.294-.11-.294-.261 0-.137.128-.253.294-.253h24.947v-46.291l-4.734 4.276v4.618c0 .137-.106.247-.272.247-.151 0-.287-.11-.287-.247v-4.104l-45.734 41.501h5.996c.128 0 .256.116.256.253a.268.268 0 01-.256.261h-6.547l-5.874 5.323v5.365c0 .137-.106.267-.287.267a.261.261 0 01-.272-.267v-4.851l-25.785 23.406v17.91c0 .144-.128.26-.31.26-.15 0-.287-.109-.287-.26v-17.396l-25.286 22.946c-.076.082-.25.082-.37-.007zM5.528 354.57h.317l-2.348-2.124v4.748l.038-.013 1.382-1.268.928-.829h-.317c-.15 0-.287-.11-.287-.26 0-.138.129-.254.287-.254zM2.93 328.547H1.88l-.694.665H2.93v-.665zm0-19.863a.692.692 0 00-.363.336h.363v-.336zm0 .836h-.363a.679.679 0 00.363.329v-.329zm.566-.836v.336h.362a.62.62 0 00-.362-.336zm.362.836h-.362v.329a.654.654 0 00.362-.329zM17.427 31.915H15.35v1.878h2.077v-1.878zm0 2.392H15.35v1.89h2.077v-1.89zm.581 1.89h36.334v-.691H18.008v.692zm0-1.205h36.334v-.685H18.008v.685zm38.946-3.077H18.008v1.878h38.954v-1.878h-.008zm0 2.392H54.9v1.89h2.054v-1.89zm2.65-2.392h-2.038V36.198h2.038v-4.283zm5.293 4.056v-4.056h-4.742v4.283h4.742v-.227zm50.763 1.056a.676.676 0 00.339-.322h-.339v.322zm-.582 0v-.322h-.362c.09.144.204.267.362.322zm-49.637-4.625v.603l.672-.603h-.672zm1.472 0l-1.472 1.315v.966l2.522-2.281h-1.05zm1.843 0l-3.315 3.021v.295h.732l3.67-3.316h-1.088zm1.902 0l-3.684 3.316h1.064l3.67-3.316h-1.05zm1.843 0l-3.647 3.316h1.05l3.669-3.316H72.5zm1.85 0l-3.632 3.316h1.064l3.655-3.316H74.35zm1.872 0l-3.654 3.316h1.072l3.654-3.316h-1.072zm1.865 0l-3.654 3.316h1.072l3.647-3.316h-1.065zm1.857 0l-3.631 3.316h1.064l3.655-3.316h-1.088zm1.888 0l-3.67 3.316h1.073l3.654-3.316h-1.057zm1.865 0l-3.67 3.316h1.073l3.647-3.316h-1.05zm1.835 0l-3.647 3.316h1.072l3.647-3.316h-1.072zm1.88 0l-3.654 3.316h1.064l3.655-3.316h-1.065zm1.873 0l-3.647 3.316h1.064l3.632-3.316h-1.05zm1.842 0l-3.647 3.316h1.065l3.646-3.316h-1.064zm1.88 0l-3.647 3.316h1.065l3.647-3.316h-1.065zm1.857 0l-3.654 3.316h1.087l3.624-3.316h-1.057zm1.865 0l-3.654 3.316h1.05l3.669-3.316H96.73zm1.88 0l-3.684 3.316h1.087l3.647-3.316h-1.05zm1.85 0l-3.631 3.316h1.049l3.647-3.316h-1.065zm1.865 0l-3.654 3.316h1.064l3.685-3.316h-1.095zm1.88 0l-3.647 3.316h1.05l3.647-3.316h-1.05zm1.835 0l-3.647 3.316h1.072l3.632-3.316h-1.057zm1.88 0l-3.654 3.316h1.064l3.67-3.316h-1.08zm1.865 0l-3.654 3.316h1.072l3.647-3.316h-1.065zm1.865 0l-3.647 3.316h1.05l3.647-3.316h-1.05zm1.865 0l-3.654 3.316h1.064l3.67-3.316h-1.08zm1.865 0l-3.669 3.316h1.087l3.632-3.316h-1.05zm1.858 0l-3.647 3.316h.815a1.27 1.27 0 01.634-.356l.038-.055v-.658c0-.137.129-.253.295-.253.151 0 .279.116.279.253v.15l2.635-2.39h-1.049v-.007zm1.857 0l-3.292 2.973c.211.062.4.185.544.336h.151l3.684-3.316h-1.087v.007zm1.873 0l-3.655 3.316h1.072l3.632-3.316h-1.049zm1.857 0l-3.647 3.316h1.072l3.647-3.316h-1.072zm1.857 0l-3.646 3.316h1.034l3.692-3.316h-1.08zm1.881 0l-3.655 3.316h1.065l3.647-3.316h-1.057zm2.899 0h-1.049l-3.632 3.316h1.049l3.632-3.296v-.02zm0 .733l-2.831 2.583h1.072l1.759-1.61v-.973zm0 1.7l-.966.883h.966v-.884zm70.092-2.433l-.77.706v.952l1.85-1.658h-1.08zm1.872 0l-2.642 2.384v.925h.037l3.655-3.316h-1.05v.007zm2.077 0h-.234l-3.625 3.316h1.05l2.809-2.535v-.781zm0 1.507l-2.016 1.809h1.087l.929-.85v-.959zm0 1.686l-.129.123h.129v-.123zm0 1.11h-4.719V72.08h4.719V36.705zm-2.862 36.362h-1.087l-.77.706v.966l1.857-1.672zm-1.857 2.391v.932h.037l3.655-3.323h-1.05l-2.642 2.391zm4.719-2.391h-.234l-3.625 3.323h1.05l2.809-2.535v-.788zm0 1.514l-2.016 1.809h1.087l.929-.843v-.966zm0 1.679l-.129.13h.129v-.13zm5.263-44.345h-4.712v4.283h4.704v-4.283h.008zm-.514 39.254v-.973l-2.091 1.891h1.049l1.042-.918zm-.241.918h.234v-.192l-.234.192zm.241-2.617v-.966l-3.654 3.316v.26h.777l2.877-2.61zm0-1.693v-.973l-3.654 3.317v.973l3.654-3.317zm0-1.692v-.966l-3.654 3.316v.966l3.654-3.316zm0-1.692v-.96l-3.654 3.316v.953l3.654-3.31zm0-1.686v-.966l-3.654 3.316v.96l3.654-3.31zm0-1.692v-.967l-3.654 3.31v.966l3.654-3.31zm0-1.693v-.966l-3.654 3.316v.967l3.654-3.317zm0-1.692v-.966l-3.654 3.302v.98l3.654-3.316zm0-1.693v-.966l-3.654 3.317v.966l3.654-3.316zm0-1.692v-.96l-3.654 3.303v.966l3.654-3.309zm0-1.685v-.967l-3.654 3.31v.966l3.654-3.31zm0-1.7v-.966l-3.654 3.317v.945l3.654-3.296zm0-1.692v-.966l-3.654 3.316v.966l3.654-3.316zm0-1.692v-.96l-3.654 3.31v.966l3.654-3.316zm0-1.686v-.966l-3.654 3.316v.973l3.654-3.323zm0-1.692v-.966l-3.654 3.323v.952l3.654-3.31zm0-1.7v-.959l-3.654 3.316v.96l3.654-3.317zm0-1.685v-.953l-3.654 3.31v.96l3.654-3.317zm0-1.692v-.967l-3.654 3.31v.966l3.654-3.31zm0-1.693v-.623h-.4l-3.254 2.973v.96l3.654-3.31zm-1.208-.623h-1.049l-1.405 1.288v.959l2.454-2.247zm-1.842 0h-.612v.555l.612-.555zm3.564 35.882H204.062V76.863h4.711v-4.276h-.007zm-4.704 151.423v4.05h4.711v-4.276h-4.704v.226h-.007zm.528-56.835v.966l2.454-2.247h-1.049l-1.405 1.281zm.612-1.288h-.612v.555l.612-.555zm-.612 2.981v.966l3.655-3.316v-.624h-.401l-3.254 2.974zm0 1.678v.973l3.655-3.316v-.966l-3.655 3.309zm0 1.706v.966l3.655-3.309v-.973l-3.655 3.316zm0 1.693v.966l3.655-3.316v-.966l-3.655 3.316zm0 1.685v.966l3.655-3.316v-.966l-3.655 3.316zm0 1.686v.973l3.655-3.316v-.967l-3.655 3.31zm0 1.699v.959l3.655-3.316v-.966l-3.655 3.323zm0 1.686v.959l3.655-3.303v-.966l-3.655 3.31zm0 1.692v.973l3.655-3.316v-.966l-3.655 3.309zm0 1.685v.967l3.655-3.317v-.966l-3.655 3.316zm0 1.707v.952l3.655-3.309v-.967l-3.655 3.324zm0 1.678v.973l3.655-3.316v-.966l-3.655 3.309zm0 1.699v.967l3.655-3.317v-.966l-3.655 3.316zm0 1.686v.973l3.655-3.316v-.966l-3.655 3.309zm0 1.692v.966l3.655-3.302v-.973l-3.655 3.309zm0 1.7v.966l3.655-3.317v-.966l-3.655 3.317zm0 1.692v.959l3.655-3.309v-.966l-3.655 3.316zm0 1.685v.967l3.655-3.317v-.966l-3.655 3.316zm0 1.693v.966l3.655-3.316v-.966l-3.655 3.316zm0 1.692v.966l3.655-3.316v-.959l-3.655 3.309zm0 1.699v.953l3.655-3.31v-.966l-3.655 3.323zm0 1.679v.966l3.655-3.316v-.966l-3.655 3.316zm0 1.693v.966l3.655-3.303v-.966l-3.655 3.303zm0 1.692v.966l3.655-3.309v-.966l-3.655 3.309zm0 1.706v.966l3.655-3.316v-.966l-3.655 3.316zm0 1.679v.966l3.655-3.31v-.966l-3.655 3.31zm0 1.692v.966l3.655-3.323v-.945l-3.655 3.302zm0 1.692v.966l3.655-3.316v-.952l-3.655 3.302zm0 1.693v.966l3.655-3.31v-.972l-3.655 3.316zm0 1.692v.966l3.655-3.316v-.973l-3.655 3.323zm0 1.693v.972l3.655-3.323v-.959l-3.655 3.31zm0 1.685v.966l3.655-3.316v-.959l-3.655 3.309zm0 1.706v.281h.748l2.914-2.631v-.966l-3.662 3.316zm1.555.281h1.065l1.042-.939v-.973l-2.107 1.912zm1.866 0h.234v-.212l-.234.212zm-3.949-61.953v4.049H208.766v-4.275h-4.712v.226h.008zm-.559 66.256v-.117l-.129.117h.129zm-.929 0l.929-.843v-.966l-2.016 1.809h1.087zm-1.88 0l2.809-2.535v-.781h-.234l-3.625 3.316h1.05zm-1.91 0h.037l3.655-3.316h-1.05l-2.642 2.391v.925zm0-1.651l1.85-1.672h-1.088l-.77.699v.973h.008zm0-22.296h3.33c.166 0 .286.13.286.261 0 .15-.12.253-.286.253h-3.33v19.123h4.719v-57.39h-4.719v37.753zm2.703-38.733h1.087l.929-.856v-.953l-2.016 1.809zm2.016-2.542v-.781h-.234l-3.625 3.316h1.05l2.809-2.535zm-.129 2.542h.129v-.13l-.129.13zm-4.59 0h.037l3.655-3.316h-1.05l-2.642 2.391v.925zm0-1.665l1.85-1.658h-1.088l-.77.706v.952h.008zm-5.263 62.673v2.145h4.696v-4.276h-4.696v2.131zm.536-58.74v.966l2.469-2.247h-1.049l-1.42 1.281zm.589-1.288h-.589v.555l.589-.555zm-.589 2.981v.966l3.632-3.316v-.624h-.363l-3.269 2.974zm0 1.678v.973l3.632-3.316v-.966l-3.632 3.309zm0 1.706v.966l3.632-3.309v-.973l-3.632 3.316zm0 1.693v.966l3.632-3.316v-.966l-3.632 3.316zm0 1.685v.966l3.632-3.316v-.966l-3.632 3.316zm0 1.686v.973l3.632-3.316v-.967l-3.632 3.31zm0 1.699v.959l3.632-3.316v-.966l-3.632 3.323zm0 1.686v.959l3.632-3.303v-.966l-3.632 3.31zm0 1.692v.973l3.632-3.316v-.966l-3.632 3.309zm0 1.685v.967l3.632-3.317v-.966l-3.632 3.316zm0 1.707v.952l3.632-3.309v-.967l-3.632 3.324zm0 1.678v.973l3.632-3.316v-.966l-3.632 3.309zm0 1.699v.967l3.632-3.317v-.966l-3.632 3.316zm0 1.686v.973l3.632-3.316v-.966l-3.632 3.309zm0 1.692v.966l3.632-3.302v-.973l-3.632 3.309zm0 1.7v.966l3.632-3.317v-.966l-3.632 3.317zm0 1.692v.959l3.632-3.309v-.966l-3.632 3.316zm0 1.685v.967l3.632-3.31v-.966l-3.632 3.309zm0 1.693v.966l3.632-3.316v-.966l-3.632 3.316zm0 1.692v.966l3.632-3.316v-.959l-3.632 3.309zm0 1.699v.939l3.632-3.296v-.966l-3.632 3.323zm1.306 1.46h-1.087l-.226.226v.966l1.313-1.192zm-1.306 1.912v.966l3.164-2.878h-1.065l-2.099 1.912zm.785-2.433h1.072l1.767-1.603v-.966l-2.839 2.569zm1.88 0h.967v-.87l-.967.87zm-2.665 4.125v.966l3.632-3.309v-.966l-3.632 3.309zm0 1.706v.966l3.632-3.316v-.966l-3.632 3.316zm0 1.679v.966l3.632-3.31v-.966l-3.632 3.31zm0 1.692v.966l3.632-3.323v-.945l-3.632 3.302zm0 1.692v.966l3.632-3.316v-.952l-3.632 3.302zm0 1.693v.966l3.632-3.31v-.972l-3.632 3.316zm.785.959h.355c.166 0 .295.116.295.26 0 .137-.129.261-.295.261h-.921l-.189.164.023.034c.068.042.106.11.106.172a.242.242 0 01-.106.185c0 .027-.038.027-.06.034v.596l3.631-3.316v-.973l-2.839 2.583zm-.785 2.426v.972l3.632-3.323v-.959l-3.632 3.31zm0 1.685v.966l3.632-3.316v-.959l-3.632 3.309zm0 1.706v.281h.755l2.877-2.631v-.966l-3.632 3.316zm1.54.281h1.065l1.027-.939v-.973l-2.092 1.912zm1.858 0h.234v-.212l-.234.212zm-3.934-57.911h4.696v-4.275h-4.696v4.275zm0-4.782h15.245V77.376h-15.245v83.215zm0-83.735h4.696V72.58h-4.696v4.276zm.536-38.863v.959l2.469-2.24h-1.049l-1.42 1.28zm.589-1.288h-.589v.555l.589-.555zm-.589 2.973v.96l3.632-3.31v-.623h-.363l-3.269 2.973zm0 1.686v.966l3.632-3.316v-.966l-3.632 3.316zm0 1.706v.96l3.632-3.317v-.953l-3.632 3.31zm0 1.685v.96l3.632-3.317v-.959l-3.632 3.316zm0 1.693v.952l3.632-3.31v-.965l-3.632 3.323zm0 1.685v.973l3.632-3.316v-.966l-3.632 3.31zm0 1.693v.966l3.632-3.316v-.96l-3.632 3.31zm0 1.699v.966l3.632-3.316v-.966l-3.632 3.316zm0 1.692v.946l3.632-3.303v-.966l-3.632 3.323zm0 1.679v.966l3.632-3.302v-.967l-3.632 3.303zm0 1.692v.966l3.632-3.316v-.959l-3.632 3.31zm0 1.7v.966l3.632-3.316v-.967l-3.632 3.317zm0 1.678v.98l3.632-3.316v-.966l-3.632 3.302zm0 1.7v.966l3.632-3.317v-.966l-3.632 3.317zm0 1.692v.966l3.632-3.316v-.966l-3.632 3.316zm0 1.7v.958l3.632-3.309v-.966l-3.632 3.316zm0 1.691v.953l3.632-3.316v-.96l-3.632 3.323zm0 1.686v.966l3.632-3.316v-.966l-3.632 3.316zm0 1.692v.973l3.632-3.323v-.973l-3.632 3.323zm0 1.7v.26h.755l2.877-2.61v-.967l-3.632 3.317zm1.54.26h1.088l1.004-.918v-.973l-2.092 1.891zm1.888 0h.204v-.192l-.204.192zm-3.964-35.89h4.696v-4.282h-4.696v4.283zm-21.308 435.024h1.926c.151 0 .294.116.294.267 0 .151-.143.24-.294.24h-1.926v2.727a4.065 4.065 0 001.926.479c2.114 0 3.82-1.528 3.82-3.446 0-1.925-1.714-3.481-3.82-3.481-.687 0-1.359.185-1.926.5v2.714zM11.93 359.366l14.505 13.176 8.887-8.071-21.769-6.585-1.623 1.48zm44.005-31.237c.173 0 .31.11.31.261v5.782l9.354 2.837 7.007-6.352-21.76-6.598-7.022 6.379 11.824 3.57v-5.612c0-.164.128-.267.287-.267zm32.044-11.428l5.935-5.379v-.014l1.05-.959-12.391-3.755v8.476l5.406 1.631zm-5.406-1.09v5.975l4.946-4.474-4.946-1.501zm11.885-5.975l-.544-.493-11.341-10.271v7.181l11.885 3.583zm-.159-.856l.929.822v-.274c0-.144.12-.253.249-.253.174 0 .31.109.31.253v.274l6.652-6.029-19.873-6.009v.575l11.733 10.641zm8.585-5.612l7.007-6.358-21.768-6.585-5.542 5.03v1.774l20.303 6.139zm37.934-51.682h7.739c.151 0 .295.116.295.26 0 .137-.144.254-.295.254h-6.055l11.597 3.515-13.862-12.58-4.946 4.474v2.419l5.527 1.658zm-5.527-1.124v1.131h3.738l-3.738-1.131zM140.72 252h-5.429v6.851l12.33 3.728 7.007-6.366L140.72 252zm-5.429 7.4v8.468l4.87 1.467 7.007-6.352-11.877-3.583zm0 9.01v5.275a.133.133 0 01-.038.089l4.47-4.042-4.432-1.322zm0-25.098v3.371l4.546-4.125-8.729-7.921-3.458 3.145 5.225 11.093 1.865-1.685v-3.878c0-.144.128-.254.287-.254.158 0 .264.11.264.254zm-.551-6.112v-5.851l-3.224 2.925 3.224 2.926zm-6.645-5.29a4.557 4.557 0 01-1.2-.822c-.423-.397-.717-.753-.929-1.096l-3.541-3.22 4.991 10.51 3.292-3.001-2.613-2.371zm1.616-.534c.529-.459.249-1.179-.815-2.131-.551-.514-1.027-.822-1.39-.932-.392-.103-.672-.034-.943.192-.363.329-.318.802.128 1.391l1.51 1.384c.642.391 1.133.439 1.51.096zm.332-76.26V157h2.054v-1.884h-2.054zm2.054-.5v-32.991h-.732v32.991h.732zm-1.283 0v-32.991h-.771v32.991h.771zm1.283-33.498v-1.877h-2.054v1.877h2.054zm0-2.391V83.358h-2.054v35.369h2.054zm.28-35.89h2.363V80.96h-4.697v1.877h2.334zm.309.514v1.87h2.054v-1.87h-2.054zm0 2.398v32.978h.74V85.749h-.74zm1.306 0v32.978h.74V85.743h-.74v.006zm-1.306 33.492v1.877h2.054v-1.877h-2.054zm0 2.384V157h2.054v-35.382h-2.054v.007zm-.309 35.882h-2.334v1.885h4.697v-1.885h-2.363zm-2.334 2.399v4.268h4.697v-4.268h-4.697zm1.344 4.775h-.815v.761l.815-.761zm-.815 1.487v.966l2.688-2.46h-1.072l-1.616 1.494zm3.481-1.487l-3.481 3.186v.96l4.168-3.789v-.357h-.687zm-3.481 4.872v.966l4.168-3.796v-.966l-4.168 3.796zm0 1.699v.959l4.168-3.782v-.966l-4.168 3.789zm0 1.686v.959l4.168-3.789v-.966l-4.168 3.796zm0 1.692v.966l4.168-3.796v-.966l-4.168 3.796zm0 1.685v.967l4.168-3.789v-.967l-4.168 3.789zm0 1.693v.966l4.168-3.796v-.959l-4.168 3.789zm0 1.692v.966l4.168-3.802v-.96l-4.168 3.796zm0 1.693v.966l4.168-3.789v-.966l-4.168 3.789zm0 1.692v.973l4.168-3.803v-.966l-4.168 3.796zm0 1.679v.973l4.168-3.789v-.966l-4.168 3.782zm0 1.706v.959l4.168-3.782v-.966l-4.168 3.789zm0 1.692v.966l4.168-3.782v-.966l-4.168 3.782zm0 1.679v.973l4.168-3.789v-.966l-4.168 3.782zm0 1.706v.966l4.168-3.789v-.966l-4.168 3.789zm0 1.692v.966l4.168-3.802v-.953l-4.168 3.789zm0 1.693v.959l4.168-3.782v-.966l-4.168 3.789zm0 1.685v.966l4.168-3.789v-.966l-4.168 3.789zm0 1.693v.548h.461l3.707-3.378V194.521l-4.168 3.789zm1.253.548h1.05l1.865-1.693v-.959l-2.915 2.652zm1.85 0h1.065v-.96l-1.065.96zm-3.405.514h-.227v4.268h4.697v-4.268h-4.47zm-.227 4.789v4.275h4.697v-4.275h-4.697zm3.655 4.782l-.71.651h1.744v-.651h-1.034zm-1.284 1.165l-.74.685h3.066v-.685h-2.326zm-1.306 1.192l-.732.686h4.364v-.686h-3.632zm-1.314 1.199l-.755.686h5.157l.544-.494v-.192h-4.946zm-1.321 1.193l-.755.685h5.157l.755-.685h-5.157zm-1.321 1.206l-.756.671h5.158l.77-.671h-5.172zm-1.322 1.185l-.755.685h5.172l.755-.685h-5.172zm-1.298 1.199l-.771.685h5.135l.77-.685h-5.134zm-1.329 1.199l-.74.678h5.142l.74-.678h-5.142zm-1.314 1.199l-.755.692h5.157l.755-.692h-5.157zm-1.322 1.192l-.755.685h5.157l.74-.685h-5.142zm-1.321 1.199l-.755.679h5.165l.74-.679h-5.15zm-1.321 1.193l-.755.685h5.142l.77-.685h-5.157zm-1.322 1.192l-.74.685h5.142l.755-.685h-5.157zm-69.05 65.358l-1.653 1.508 1.45 1.329 8.298-7.53v-2.645l-8.094 7.338zm8.095-8.071v-.966l-8.827 8.01.529.493 8.298-7.537zM10.29 325.608l.74-.679H8.766v.679h1.525zm-1.525.527v.685h.204l.74-.685h-.944zm2.862-1.713l.71-.65H8.774v.65h2.854zm-1.548 2.782l1.82 3.83 9.015 8.168h.015l.544.5c.189-.11.4-.199.664-.199.227 0 .461.089.665.199l.52-.5 1.76-1.583-6.561-13.854h-4.629l-3.813 3.439zm7.74 10.319c1.32 1.192 1.547 2.179.732 2.926-.612.548-1.322.555-2.145.13l4.614 9.798 7.045-6.379-2.771-5.845-.174.158v.007l-1.405 1.267-.528.48c.128.178.204.377.204.596 0 .24-.068.432-.204.61l.528.486 2.349 2.117c.022.048.06.11.06.185 0 .062-.038.138-.06.185-.144.09-.295.09-.416 0l-2.854-2.61c-.204.11-.438.192-.664.192-.257 0-.468-.082-.665-.192l-.543.48c-.129.109-.295.109-.4 0-.129-.089-.129-.254 0-.357l.528-.486a1.001 1.001 0 01-.204-.61c0-.206.068-.418.204-.596l-8.57-7.749 2.175 4.535c.815-.712 1.88-.493 3.164.672zm-2.9-.137l.959 2.021c1.027.911 1.76 1.144 2.28.685.506-.459.25-1.171-.793-2.124-.604-.52-1.064-.836-1.427-.932-.362-.102-.694-.034-.92.185-.076.048-.076.117-.099.165zm14.837-13.614l3.171 6.714 7.03-6.379-.144-.329H29.757v-.006zm6.622-3.084c-.551-.521-1.027-.822-1.405-.932-.377-.096-.687-.034-.928.199-.521.466-.25 1.185.815 2.131 1.042.959 1.82 1.206 2.348.733.491-.473.234-1.178-.83-2.131zm-7.211 3.084h-10.05l6.373 13.477 7.022-6.379-3.345-7.098zm3.564 7.612l-7.007 6.372 2.763 5.851 7.03-6.372-2.786-5.851zm-9.906 9.277c0-.069 0-.144-.038-.219l-.272.219.272.24c.038-.076.038-.151.038-.24zm-.703.37l-.271.24c.09.027.166.048.271.048.083 0 .151-.021.234-.048l-.234-.24zm.242-.952a.56.56 0 00-.234-.048.717.717 0 00-.272.048l.272.226.234-.226zm-.65.582l-.249-.219c-.022.075-.06.15-.06.219 0 .089.038.164.06.24l.25-.24zm-3.45-17.403l-1.148-2.433-2.68 2.433h3.828zm.619 0h10.027l-4.341-9.195-7.007 6.379 1.321 2.816zm10.654 0h5.814a5.147 5.147 0 01-1.004-.727c-1.307-1.185-1.548-2.172-.718-2.932.861-.761 1.933-.548 3.247.651 1.321 1.192 1.548 2.165.71 2.925-.046.042-.106.055-.144.089h2.137l-1.306-2.754a5.691 5.691 0 01-.921-.692c-1.261-1.151-1.503-2.11-.755-2.857l-4.568-9.654-7.023 6.372 4.53 9.579zm9.098-3.282c.65.411 1.193.459 1.548.123.529-.459.272-1.185-.793-2.138-.55-.514-1.034-.829-1.427-.925a.874.874 0 00-.687.069l1.36 2.871zm-1.759-2.453c-.189.404.068.945.77 1.603l-.77-1.603zm.174-.884c.777-.384 1.714-.117 2.831.891 1.284 1.185 1.548 2.172.695 2.925-.446.405-.967.507-1.556.363l1.156 2.44h.717l6.524-5.913-7.944-16.821-7.021 6.379 4.598 9.736zm10.812.308l7.007-6.379-5.761-12.21-1.956-1.774c-.105-.11-.105-.267 0-.37a.284.284 0 01.4 0l.967.87-1.593-3.33-1.23 1.144-3.73 3.371-2.062 1.857 7.958 16.821zm10.276-10.12h.31l-.921-.843-1.284-1.185v4.543l1.284-1.186.921-.822h-.31c-.15 0-.287-.116-.287-.26 0-.137.129-.247.287-.247zm1.005-.103l1.193-1.082c.105-.11.294-.11.392 0 .068.041.09.109.09.185a.196.196 0 01-.09.164l-.92.843h.309c.15 0 .287.11.287.254 0 .137-.129.26-.287.26h-.31l.415.356.506.466 2.333 2.117a.269.269 0 01.083.178.271.271 0 01-.083.179c-.105.096-.31.096-.4 0l-2.846-2.584-.672-.609-1.216 1.082-1.684 1.556v2.021l2.077 4.44 7.03-6.379-10.95-23.18-6.84 6.208-.204.178 2.243 4.687 6.055 5.502v-11.641c0-.131.129-.261.287-.261.174 0 .31.13.31.261v12.161l2.892 2.638zm-2.907 6.681v5.043l1.638-1.515-1.638-3.528zm-.59-3.536v-5.577l-5.473-4.961 5.134 10.847.34-.309zm-.105.823l.106.219v-.309l-.106.09zm.106 1.514l-.521-1.124-7.045 6.372 2.764 5.804h.083l4.719-4.296v-6.756zm-.816-25.605l10.941 23.179 7.03-6.379-4.002-8.462c-.77.377-1.465.343-2.016-.171-.816-.733-.612-1.679.611-2.816l-5.247-11.107c-.046.055-.106.076-.189.076-.174 0-.294-.103-.294-.261v-.274l-.19.179-1.177 1.075-1.888 1.699-2.174 1.994v.514c0 .137-.129.247-.31.247-.15 0-.257-.11-.287-.247l-.808.754zm26.797 10.682l.393.342v-.233l-.393-.109zm.393-.425v-1.09l-.921.823.92.267zm-1.457.199l-1.91 1.761c.082.602-.257 1.294-1.156 2.103-.876.795-1.653 1.117-2.31 1.041l-1.533 1.384 8.366 2.529v-7.53l-1.457-1.288zm-17.427-15.821l-.355-.329 5.051 10.689c1.17-.932 2.114-1.083 2.877-.398.838.761.59 1.741-.71 2.926-.249.233-.483.397-.71.548l1.42 3.029v-.014c.038-.418.234-.802.59-1.158a2.14 2.14 0 011.192-.528c.446-.061.876.083 1.23.425.4.363.53.795.416 1.295.506-.479.816-.897.899-1.26a.96.96 0 00-.295-.919c-.355-.308-.793-.322-1.238-.02l-.438-.439c.355-.239.695-.363 1.065-.342.362.02.694.171.989.452.415.384.604.85.483 1.37-.068.528-.468 1.117-1.178 1.761-1.23 1.117-2.28 1.281-3.171.5l1.986 4.194 1.381-1.247c-.12-.062-.226-.096-.332-.185-.853-.775-.604-1.748.695-2.947 1.336-1.185 2.393-1.404 3.254-.63.098.082.128.192.189.295l1.782-1.604-17.072-15.464zm16.604 14.341l-10.428-22.111-5.768 5.221-1.193 1.09 1.193 1.089 16.196 14.711zm-12.044-2.988c-.392.377-.649.72-.755.966-.098.35-.022.638.234.857.318.308.793.274 1.36-.028l-.839-1.795zm1.322 1.501c.15-.13.317-.24.506-.404 1.064-.953 1.336-1.659.8-2.131-.483-.439-1.23-.213-2.227.63l.92 1.905zm2.378 3.652c-.06.308.046.555.28.76.226.206.498.281.777.261a1.51 1.51 0 00.853-.391c.257-.233.4-.479.416-.747.037-.267-.068-.5-.295-.719a1.058 1.058 0 00-.8-.281 1.205 1.205 0 00-.793.329c-.257.233-.415.493-.438.788zm6.63.925a.912.912 0 00-.204-.315c-.529-.459-1.306-.22-2.364.74-.55.513-.92.938-1.011 1.274-.106.343-.046.624.189.856.105.09.233.137.377.172l3.013-2.727zm-1.979 2.521c.295-.157.604-.377.967-.706.355-.322.589-.609.777-.877l-1.744 1.583zm-2.831 2.563l-7.007 6.365 15.81 4.782v-8.482l-8.803-2.665zm-16.981-22.515l14.965-13.594-.544-.473-14.421 13.094v.973zm0 .719v2.652l4.13-3.748.695-.651.498-.438-1.193-1.09c-.144-.089-.144-.253 0-.356.09-.096.257-.096.393 0l.906.836v-.281c0-.137.12-.254.294-.254.143 0 .272.117.272.254v.281l10.835-9.832-1.472-1.33-15.358 13.957zm17.23-12.977l1.45-1.336-.733-.658v-.006l-.717-.665-1.45 1.329 1.45 1.336zm.921-2.535l7.634-6.927v-.966l-8.162 7.407.528.486zm.385.35l.544.493 6.705-6.084v-.967l-7.249 6.558zm2.432-.487l10.948 23.179 7.007-6.379-10.948-23.172-1.639 1.487v12.271c0 .151-.106.261-.287.261-.174 0-.272-.11-.272-.261v-11.757l-4.81 4.371zm55.647-16.677l-2.038 1.857h3.926v-1.288l-1.888-.569zm1.888.021v-1.727l-1.427 1.302 1.427.425zm-4.742 1.836l2.454-2.213-5.24-11.086-7.03 6.358 3.277 6.941h6.539zm-6.305.514l1.745 3.652 3.986-3.652h-5.731zm6.554 0l-4.402 3.994 8.895 2.679V252h-4.493zm-4.84 4.385l-7.022 6.358 16.355 4.94v-8.468l-9.333-2.83zm-.415-.343l-1.91-4.049h-8.004c-.166 0-.294-.117-.294-.254s.128-.26.294-.26h7.777l-3.118-6.55-5.391 4.906-.906.835h.317a.25.25 0 01.257.247c0 .151-.106.267-.257.267h-.317l3.246 2.947a.216.216 0 01.084.185c0 .061-.023.116-.084.185a.316.316 0 01-.4 0l-2.333-2.111v-.014l-1.178-1.082-.045.014 5.24 11.099 7.022-6.365zm-18.386-17.821l.665-.596h-1.337l.672.596zm-.007 1.411l-2.96 2.679 7.377 6.681-4.417-9.36zm1.223-2.528l.77-.685h-3.964l.755.685h2.439zm-.649 2.001l-.144.137 5.037 10.716.694.61 1.178-1.09 5.557-5.036-5.466-11.593-6.856 6.256zm5.127 12.607l-.718.671c-.128.096-.309.096-.415 0-.121-.096-.121-.26 0-.363l.906-.822-.038-.007h-.256c-.174 0-.31-.116-.31-.267 0-.13.128-.247.31-.247h.037l-.211-.425-.438-.404-7.928-7.174-1.654 1.508-1.85 1.678h-.015l-.15.151 2.574 5.475h6.244c.144 0 .28.116.28.26 0 .137-.144.254-.28.254h-5.98l8.132 17.184 7.007-6.379-5.247-11.093zM91.09 252l-8.517 7.728v.973l9.59-8.701H91.09zm1.631-.514l6.38-5.804-.52-.479-6.925 6.283h1.065zm-2.416.514h-1.072l-6.652 6.036v.966L90.305 252zm.566-.514l7.317-6.653-.529-.48-7.845 7.133h1.057zm7.906-6.831l.74.671 1.464-1.329-1.465-1.329-1.464 1.329.725.658zm3.005 7.345h-.106c-.151 0-.287-.117-.287-.254 0-.089.083-.164.151-.219l-2.409-5.132-5.602 5.091h1.465c.128 0 .256.116.256.26a.267.267 0 01-.256.254H92.94l-.823.774 10.941 23.179 7.029-6.372L101.782 252zm-10.095 1.164l-7.045 6.379 10.948 23.173 7.03-6.379-10.933-23.173zm-9.114.775L84.71 252h-2.137v1.939zm0 .719v2.652L88.44 252h-2.93l-2.937 2.658zm6.433-3.172l8.45-7.674 1.653-1.508-1.45-1.329-11.59 10.511h2.937zm10.714-9.373h.016l1.653 1.507 1.465-1.316-1.661-1.507-1.661-1.507-1.465 1.322 1.653 1.501zm3.511-.172l3.338-3.021-3.338-3.015-3.307 3.015 3.307 3.021zm.839-6.036h5.089l.74-.672h-5.142l-.718.658.031.014zm6.395-1.185l.755-.686h-5.157l-.74.686h5.142zm1.314-1.206l.755-.679h-5.135l-.77.679h5.15zm1.321-1.193l.755-.671h-5.165l-.755.671h5.165zm1.306-1.199l.77-.692h-5.157l-.77.692h5.157zm1.322-1.192l.77-.685h-5.157l-.755.685h5.142zm1.336-1.199l.74-.685h-5.142l-.755.685h5.157zm1.306-1.192l.74-.678h-5.142l-.74.678h5.142zm1.322-1.199l.74-.685h-5.165l-.732.685h5.157zm1.804-.24l-7.022 6.379 5.467 11.573 7.029-6.379-5.474-11.573zm13.523 47.846c-.151 0-.287-.11-.287-.261v-5.46l-16.777-5.071-7.007 6.352 21.761 6.584 2.408-2.185c-.022.02-.045.041-.098.041zm-24.539-4.029l-6.984 6.372 21.745 6.578 7.007-6.352-21.768-6.598zm-7.437 6.776l-7.03 6.352 21.783 6.584 7.007-6.358-21.76-6.578zm-7.453 6.763l-7.007 6.358 21.769 6.599 6.984-6.373-21.746-6.584zm-7.875 6.413l-10.94-23.179-1.277 1.137-1.85 1.693-3.918 3.556 10.94 23.179 1.344-1.213v-3.117c0-.131.09-.261.272-.261.174 0 .287.13.287.261v2.596l5.142-4.652zm-5.693 25.571l-16.272-4.913-6.999 6.352 21.059 6.379h.92l1.284-1.145v-6.673h.008zm-2.288 8.332h-18.22c-.166 0-.294-.11-.294-.261 0-.137.129-.253.295-.253h16.52l-19.714-5.975-2.077 1.898v3.131c0 .144-.128.254-.31.254-.15 0-.286-.11-.286-.254v-2.61l-3.919 3.556h3.066c.166 0 .31.116.31.253 0 .144-.144.261-.31.261H51.69l21.368 6.461 7.007-6.352-.332-.109zm-29.372 0H48.12c-.166 0-.31-.11-.31-.261 0-.137.144-.253.31-.253h2.099l-2.575-5.406-6.04 5.481c.068.048.098.11.098.185 0 .144-.128.26-.272.26h-.294l-.499.453 2.749 5.865 6.976-6.324zm-10.148.842l-7.044 6.366 2.786 5.865 7.007-6.386-2.749-5.845zm-4.28 12.971l-7.023 6.365 21.791 6.577 4.946-4.501v-2.474l-19.715-5.967zm-7.46 6.776l-7.008 6.358 21.761 6.571 7.007-6.351-21.76-6.578zm-7.46 6.756l-7.008 6.372 21.784 6.577 7.022-6.365-21.799-6.584zm-13.01-5.749a2.63 2.63 0 01.317-.404c.257-.233.566-.377.966-.439l-1.215-.753-.567.5.499 1.096zm-4.508-16.821v.665h2.847l.717-.665H3.496zm1.518 1.857l.77-.699H3.496v.699h1.518zm-1.518.514v.678h.189l.77-.678h-.959zm0 2.275v1.26c0 .137-.143.268-.294.268a.282.282 0 01-.272-.268v-.746l-.295.26 4.599 9.729.732-.678 2.37 1.459-.4.453c-.415-.089-.74.013-1.087.301-.226.233-.362.48-.362.761.038.274.166.534.438.774.226.226.528.356.853.404.34.041.634-.055.899-.288.422-.383.422-.822.015-1.336l.55-.411c.295.329.424.679.401 1.062-.045.377-.211.72-.566 1.042a1.834 1.834 0 01-.884.466c-.31.068-.626.061-.966-.035-.023-.02-.09-.041-.151-.068l4.523 9.551 7.022-6.379-5.112-10.832c-.06-.042-.128-.076-.174-.131-1.072-.959-1.381-1.774-1.05-2.459l-2.83-6.016-1.3-1.158c-.09-.103-.09-.267 0-.356.122-.103.31-.103.4 0l.273.239-1.156-2.453-6.176 5.585zm5.27-9.97h4.138l.77-.685H8.766v.685zm.325-1.199h5.157l.77-.678H9.846l-.755.678zm1.321-1.192h5.157l.77-.685h-5.164l-.763.685zm1.307-1.192h5.18l.732-.692h-5.142l-.77.692zm1.336-1.206h5.157l.733-.678H13.81l-.755.678zm1.306-1.199h5.135l.77-.672h-5.142l-.763.672zm1.314-1.192h5.142l.778-.679H16.43l-.755.679zm1.321-1.192h5.158l.77-.672h-5.165l-.763.672zm1.322-1.193h5.157l.74-.699h-5.142l-.755.699zm1.306-1.199h5.165l.755-.685h-5.157l-.763.685zm1.321-1.199h5.165l.732-.671H21.7l-.755.671zm1.337-1.185h5.157l.74-.699h-5.157l-.74.699zm1.306-1.192h5.142l.77-.699h-5.157l-.755.699zm1.314-1.206h5.157l.77-.685h-5.165l-.762.685zm1.306-1.192h5.165l.77-.686h-5.165l-.77.686zm1.322-1.199h5.164l.755-.692h-5.142l-.777.692zm1.336-1.2h5.157l.755-.685h-5.165l-.747.685zm1.321-1.192h5.157l.74-.678h-5.157l-.74.678zm1.322-1.192h5.134l.77-.692h-5.142l-.762.692zm1.298-1.213h5.157l.77-.671H33.57l-.763.671zm1.307-1.185h5.164l.77-.685h-5.157l-.777.685zm1.344-1.192H40.6l.4-.357-.378-.335h-4.41l-.754.692zm2.076-1.891l-.77.685h3.277l-.733-.685h-1.774zm.559-.507h.664l-.332-.302-.332.302zm.355-1.008l.166.158 2.997 2.7v.013l.166.151 3.33-3.022-3.33-3.014-3.33 3.014zm3.722-3.377l3.315 3.028 1.472-1.329-3.337-3.022-1.45 1.323zm1.842-1.693l1.473 1.329 1.472-1.329-1.472-1.329-1.473 1.329zm1.888-1.692l.529.479 9.211-8.359v-.287c0-.137.129-.261.287-.261.106 0 .174.041.212.089l14.111-12.812-.528-.48L45.9 287.944zm24.222-21.987l1.465 1.336 1.472-1.336-1.472-1.336-1.465 1.336zm1.888-1.693l1.45 1.329 8.554-7.763v-2.658l-10.004 9.092zm10.012-12.778v-2.124l-2.364 2.124h2.364zm-6.305 1.117c.521.486 1.405.486 1.926 0l.672-.603h-3.27l.672.603zm-2.016-1.117l-.506-.452-.52.452H73.7zm-17.464-37.918v11.525c0 .137-.129.247-.31.247-.15 0-.287-.11-.287-.247v-11.004l-27.884 25.283c-.529.493-.529 1.288 0 1.768l11.424 10.359h2.242c.144 0 .272.117.272.261 0 .137-.128.253-.272.253h-1.676l14.807 13.437c.31.281.71.376 1.087.349v-22.467c0-.144.129-.253.287-.253.174 0 .31.109.31.253v22.309c.083-.061.188-.102.271-.185l14.8-13.436h-9.793c-.166 0-.295-.116-.295-.253s.129-.261.295-.261h10.374l.906-.829-5.625-5.097c-2.039-1.535-2.303-4.283-.634-6.133 0-.007 0-.007.022-.007v-.013l15.562-14.129a.236.236 0 01-.09-.191v-20.932H66.595l-10.36 9.393zm26.057 17.342c.173 0 .287.11.287.254v4.275l12.096-10.983a9.97 9.97 0 01-2.5.918c-1.615 1.336-3.692 2.172-5.866 2.336a1.06 1.06 0 01-.77-.26c-.212-.185-.333-.418-.333-.678v-.014c0-.26.106-.452.272-.624a5.203 5.203 0 01-1.722-1.617l-16.792 15.245c-1.487 1.631-1.216 4.077.566 5.413v.014h.038l2.522 2.295c0-.452.204-.897.566-1.233l11.364-10.312v-4.789c0-.13.09-.24.272-.24zm27.446-26.098c0-.007-.015-.021-.015-.034v-.014a.267.267 0 00-.121-.219.337.337 0 00-.438.048l-.015.013a.248.248 0 01-.143.076s0-.007-.023 0c-.045 0-.068-.007-.106-.014-.038-.014-.068-.014-.09-.034h-.016c-.022-.021-.022-.048-.06-.076 0-.02-.038-.034-.038-.061-.06-.137-.128-.261-.166-.405-.06.028-.083.062-.143.062h-6.705c-.151 0-.287-.11-.287-.253 0-.138.128-.261.287-.261h6.644c-.883-1.603-2.793-2.583-4.824-2.364-1.745 1.042-2.643 2.899-2.311 4.762v.041a.176.176 0 01-.038.11.13.13 0 01-.06.062c0 .013 0 .041-.038.054a4.478 4.478 0 00-1.721 1.652 3.806 3.806 0 00-.317 3.22c.354 1.083 1.147 1.973 2.25 2.508.015.007.015.02.015.034.045.021.105.041.105.082.038.021 0 .055 0 .076 0 .013.038.02.038.034 0 .014 0 .048-.038.075v.041c-.015.035-.045.041-.06.055-.045.021-.045.055-.068.055a.447.447 0 00-.294.418c0 .137.06.24.151.329.105.082.226.13.354.13.378-.041.771-.082 1.133-.158 2.439-.479 4.53-1.774 5.867-3.672 1.344-1.898 1.797-4.145 1.261-6.352.015-.006.03-.013.03-.02zm-12.957 3.487a.121.121 0 01-.06.062c0 .014 0 .041-.038.041-.732.404-1.336.98-1.722 1.658-1.192 2.056-.332 4.639 1.949 5.728.015.014.015.021.015.028.037.034.083.048.09.089.023.034 0 .041 0 .075.023.014.046.014.046.034 0 .021-.023.048-.023.062-.023.014-.023.027-.023.034v.028c-.015.013-.045.041-.06.048-.038.013-.038.041-.068.061a.464.464 0 00-.295.418c.016.151.06.233.166.329a.516.516 0 00.34.124 9.93 9.93 0 004.682-1.624c-.106.013-.204.034-.287.034h-.023a1.117 1.117 0 01-.77-.26c-.189-.185-.317-.418-.317-.672 0-.24.128-.459.294-.644-1.064-.603-1.842-1.507-2.242-2.61-.4-1.213-.257-2.495.4-3.618.4-.72 1.012-1.295 1.782-1.734-.144-.842-.015-1.692.279-2.473a5.29 5.29 0 00-1.804-.124c-1.714 1.035-2.605 2.899-2.28 4.769v.035c.015.027-.008.054-.03.102zm6.169 6.996c-.944.795-2.076 1.384-3.292 1.788a8.226 8.226 0 01-1.276 4.029l7.807-7.105c-.959.603-2.061 1.028-3.239 1.288zm-3.88 1.98c-.628.171-1.277.302-1.934.356h-.015c-.287 0-.566-.096-.755-.267-.212-.185-.355-.418-.355-.685a.822.822 0 01.287-.651c-1.76-1.007-2.658-2.83-2.37-4.618a5.654 5.654 0 00-1.277-.034c-1.722 1.048-2.628 2.905-2.28 4.769 0 .013-.023.034-.023.041 0 .041-.015.075-.023.109-.022.021-.022.041-.045.062 0 .014-.022.034-.038.062-.732.39-1.344.959-1.721 1.651-.612.993-.74 2.144-.363 3.22.378 1.076 1.201 1.974 2.28 2.508.016 0 .016.02.046.02.023.035.068.055.083.096.015.021 0 .042 0 .062 0 .014.045.027.045.041 0 .014-.037.048-.045.076v.048c-.023.013-.045.034-.068.047-.015.028-.045.062-.06.062a.458.458 0 00-.295.425v.007c0 .246.234.445.499.445 4.59-.384 8.132-3.727 8.426-7.852zm-13.109 1.11c-.022.027-.037.048-.06.062-.015.013-.015.034-.038.048a4.427 4.427 0 00-1.714 1.644c-1.23 2.069-.355 4.639 1.91 5.742.023 0 .023.02.023.034.045.021.09.034.106.082v.062c0 .027.038.027.038.041 0 .034 0 .041-.038.069v.048c-.038.02-.06.02-.068.054-.038.021-.038.055-.06.062a.414.414 0 00-.295.411v.014c0 .13.045.233.15.322.091.082.212.13.34.13a10.067 10.067 0 004.712-1.631c-.105 0-.204.035-.294.035-.015 0-.015-.007-.015-.007v.007c-.59.02-1.088-.405-1.088-.932 0-.233.106-.452.287-.644-1.064-.61-1.887-1.508-2.242-2.611-.4-1.213-.287-2.507.377-3.624.416-.699 1.027-1.295 1.797-1.741a4.774 4.774 0 01.287-2.459 5.674 5.674 0 00-1.797-.137c-1.721 1.055-2.635 2.912-2.288 4.761v.062c0 .034-.03.062-.03.096zm7.83-37.15c-.551-.493-1.42-.493-1.933 0L67.155 203.64h14.867v-8.934c0-.138.09-.254.272-.254.173 0 .287.116.287.254v8.934h12.428c.128 0 .257.13.257.261 0 .15-.129.253-.257.253H82.58v20.706l.92-.822a4.327 4.327 0 01.152-4.132c.415-.719 1.042-1.302 1.797-1.747-.317-2.042.694-4.036 2.605-5.159 0-.014.037 0 .037-.014.038-.007.046-.021.068-.021.718-.089 1.428-.013 2.122.151.46-.891 1.178-1.658 2.137-2.22 0-.007.038 0 .038-.007.038-.013.045-.02.068-.034.483-.062 1.011-.034 1.51.034a3.91 3.91 0 01.438-1.075 4.68 4.68 0 011.797-1.741c-.31-2.035.695-4.056 2.62-5.173 0-.007.022 0 .06-.007 0-.007.038-.027.038-.027a5.76 5.76 0 012.137.151 5.797 5.797 0 012.121-2.213c.023-.014.046-.014.068-.014 0 0 .038-.034.046-.034 1.638-.192 3.224.328 4.341 1.295l1.027-.919-13.772-12.518c-.755-.671-.755-1.788 0-2.473l2.137-1.932-3.3-2.974zm21.285 12.984l-13.13-11.936c-.529-.479-1.389-.479-1.933 0l-2.326 2.111-2.333 2.117a1.174 1.174 0 000 1.754l13.969 12.676 1.17 1.062c.529.486 1.412.486 1.948 0l1.155-1.062c.416-.364.959-.514 1.488-.48v-6.242h-.008zm0 9.106a.74.74 0 00-.362.315h.362v-.315zm0 .836h-.362c.09.151.204.267.362.329v-.329zm0 1.542v-.699a1.19 1.19 0 01-.929-.843h-4.047c-.166 0-.287-.11-.287-.254 0-.137.121-.26.287-.26h4.047c.121-.418.461-.74.929-.836v-1.829c-.377-.035-.8.061-1.095.335l-1.155 1.062c-.755.672-1.986.672-2.726 0l-.981-.883-1.012.945c.415.459.74 1 .982 1.603a.944.944 0 01.875.096c.189.137.31.357.333.576v.048a7.13 7.13 0 01.234 1.864 8.034 8.034 0 01-1.609 4.823c-.067.103-.166.185-.234.288l6.494-5.886c-.076-.034-.106-.096-.106-.15zm-32.505 30.462v1.069c0 .151-.106.267-.287.267-.174 0-.272-.116-.272-.267v-.548l-10.963 9.928a1.224 1.224 0 000 1.761l2.325 2.104h.016v.013l1.094.994h4.38l3.148-2.851v-5.323c0-.144.09-.254.272-.254.174 0 .287.11.287.254v4.81l41.513-37.658a1.172 1.172 0 000-1.747l-2.333-2.117-2.333-2.11c-.189-.192-.483-.288-.755-.329h-.4c-.28.041-.567.137-.756.329l-34.936 31.675zm39.376-30.113l2.099-1.898h-4.198l2.099 1.898zm-5.95-1.891h-.339v.329a.69.69 0 00.339-.329zm-.339.836v.425l1.389-1.261h-.468c-.106.418-.461.74-.921.836zm.339-1.357a.691.691 0 00-.339-.315v.315h.339zm.582 0H118.257c.068 0 .128-.027.204-.027l-2.522-2.296c-.098-.068-.204-.109-.272-.157v1.644c.453.096.808.418.914.836zm7.505-1.261l-8.426-7.646v5.824c.249.089.483.205.687.384l2.937 2.692h5.097a1.132 1.132 0 00-.295-1.254zm5.376 6.311v-4.529h-4.742c-.083.11-.143.233-.249.329l-2.114 1.925 2.114 1.939c.393.343.566.788.566 1.24 0 .439-.173.891-.566 1.24l-41.898 38.014v2.638h2.703l12.18-11.052 1.872-1.692 3.715-3.385 29.107-26.414h-2.394c-.151 0-.294-.109-.294-.253zm5.278-134.712v-.973l-2.915 2.659h1.05l1.865-1.686zm-1.065 1.686h1.065v-.96l-1.065.96zm1.065-3.385v-.96l-4.168 3.796v.549h.461l3.707-3.385zm0-1.692v-.953l-4.168 3.79v.958l4.168-3.796zm0-1.686v-.966l-4.168 3.782v.973l4.168-3.79zm0-1.692v-.96l-4.168 3.782v.967l4.168-3.79zm0-1.686v-.98l-4.168 3.803v.966l4.168-3.789zm0-1.692v-.966l-4.168 3.795v.96l4.168-3.79zm0-1.7v-.959l-4.168 3.79v.965l4.168-3.796zm0-1.685v-.973l-4.168 3.782v.973l4.168-3.782zm0-1.692v-.967l-4.168 3.796v.966l4.168-3.795zm0-1.693v-.973l-4.168 3.803v.966l4.168-3.796zm0-1.692v-.966l-4.168 3.782v.966l4.168-3.782zm0-1.693v-.959l-4.168 3.776v.98l4.168-3.797zm0-1.692v-.966l-4.168 3.789v.966l4.168-3.789zm0-1.7v-.952l-4.168 3.796v.953l4.168-3.796zm0-1.678v-.966l-4.168 3.789v.966l4.168-3.789zm0-1.692v-.973l-4.168 3.796v.966l4.168-3.79zm0-1.693v-.966l-4.168 3.796v.96l4.168-3.79zm0-1.692v-.966l-4.168 3.796v.973l4.168-3.803zm0-1.686v-.356h-.687l-3.481 3.18v.965l4.168-3.788zm-1.472-.363h-1.073l-1.615 1.487v.966l2.688-2.453zm-1.881 0h-.815v.768l.815-.768zm3.353-.507v-4.248c0-.014.015-.014.015-.014h-4.712v4.27h4.697v-.008zm5.285-9.058h-9.982v4.283h9.982v-4.283zm0 4.79h-4.734v4.261H140.018v-4.261h.007zm-.528 38.034v-.967l-2.077 1.892h1.065l1.012-.925zm-.227.925h.227v-.2l-.227.2zm.227-2.618v-.966l-3.942 3.584h1.065l2.877-2.618zm0-1.678v-.973l-4.198 3.796v.966l4.198-3.79zm0-1.7v-.966l-4.198 3.796v.966l4.198-3.796zm0-1.685v-.966l-4.198 3.782v.966l4.198-3.782zm0-1.7v-.952l-4.198 3.782v.973l4.198-3.802zm0-1.685v-.973l-4.198 3.79v.972l4.198-3.789zm0-1.7v-.965l-4.198 3.789v.973l4.198-3.796zm0-1.692v-.952l-4.198 3.79v.952l4.198-3.79zm0-1.685v-.966l-4.198 3.782v.966l4.198-3.782zm0-1.686v-.966l-4.198 3.796v.966l4.198-3.796zm0-1.692v-.98l-4.198 3.803v.966l4.198-3.789zm0-1.692v-.966l-4.198 3.795v.96l4.198-3.79zm0-1.7v-.959l-4.198 3.79v.952l4.198-3.783zm0-1.685v-.973l-4.198 3.796v.966l4.198-3.79zm0-1.693v-.966l-4.198 3.796v.966l4.198-3.795zm0-1.692v-.966l-4.198 3.796v.96l4.198-3.79zm0-1.7v-.952l-4.198 3.783V49.785l4.198-3.803zm0-1.685v-.966l-4.198 3.79v.965l4.198-3.789zm0-1.692v-.973l-4.198 3.803v.966l4.198-3.796zm-.65-1.124h-1.072l-2.476 2.261v.967l3.548-3.228zm-1.865 0h-1.064l-.627.569v.952l1.691-1.52zm3.043 34.69h-4.726v3.084c0 .15-.106.26-.272.26-.151 0-.287-.11-.287-.26V76.17h-4.697v4.275h9.982v-4.275zm-5.285 145.977c-.083.013-.174.034-.28.034l.28.253v-.287zm5.285-141.187h-4.734V159.412h4.734V80.96zm0 78.946h-4.734v4.268H140.018v-4.268h.007zm-.528 38.04v-.973l-2.077 1.885h1.065l1.012-.912zm-.227.912h.227v-.192l-.227.192zm.227-2.604v-.966l-3.942 3.57h1.065l2.877-2.604zm0-1.692v-.973l-4.198 3.802v.966l4.198-3.795zm0-1.7v-.952l-4.198 3.782v.973l4.198-3.803zm0-1.685v-.966l-4.198 3.802v.967l4.198-3.803zm0-1.686v-.966l-4.198 3.789v.966l4.198-3.789zm0-1.706v-.952l-4.198 3.789v.959l4.198-3.796zm0-1.678v-.973l-4.198 3.802v.96l4.198-3.789zm0-1.693v-.973l-4.198 3.796v.966l4.198-3.789zm0-1.692v-.966l-4.198 3.789v.959l4.198-3.782zm0-1.693v-.966l-4.198 3.796v.966l4.198-3.796zm0-1.699v-.959l-4.198 3.789v.959l4.198-3.789zm0-1.685v-.973l-4.198 3.789v.973l4.198-3.789zm0-1.693v-.966l-4.198 3.796v.966l4.198-3.796zm0-1.699v-.966l-4.198 3.803v.973l4.198-3.81zm0-1.679v-.966l-4.198 3.782v.973l4.198-3.789zm0-1.692v-.973l-4.198 3.796v.966l4.198-3.789zm0-1.692v-.973l-4.198 3.802v.967l4.198-3.796zm0-1.706v-.96l-4.198 3.796v.973l4.198-3.809zm0-1.686v-.959l-4.198 3.789v.966l4.198-3.796zm-.65-1.117h-1.072l-2.476 2.254v.98l3.548-3.234zm-1.865 0h-1.064l-.627.569v.966l1.691-1.535zm3.043 34.691h-4.726v4.268h4.734v-4.268h-.008zm0 4.789h-4.734v4.275h4.734v-4.275zm-3.201 6.632l.755-.685h-2.288v.685h1.533zm-1.533.507v.686h.211l.74-.686h-.951zm2.862-1.706l.717-.651h-3.571v.651h2.854zm2.333-.726l-5.195 4.714v7.893c.098-.027.151-.02.227-.041l.468.418a5.603 5.603 0 01-.695.212v.877l2.182 1.981-.445.424-1.737-1.541v1.288c0 .137-.106.247-.272.247-.151 0-.287-.11-.287-.247v-1.802l-1.593-1.46.295-.274c.362.11.823.096 1.298.035v-7.503l-12.745 11.559 3.738 3.385c.037-.316.12-.603.422-.877.854-.768 1.926-.535 3.247.651 1.299 1.185 1.533 2.172.71 2.925-.295.261-.65.357-.967.404l1.956 1.775 17.887-16.204h-8.011l.204.198c.06.042.106.11.106.172 0 .061-.046.137-.106.185-.098.096-.287.096-.4 0l-.204-.192v4.166c0 .137-.121.26-.279.26a.26.26 0 01-.272-.26v-4.522h-1.699c-.166 0-.287-.124-.287-.261s.121-.26.287-.26h1.299l-.227-.192c-.106-.11-.106-.26 0-.363a.275.275 0 01.393 0l.234.185v-5.742c0-.137.105-.253.272-.253.166 0 .279.109.279.253v6.112h8.97l2.386-2.165.528-.487a1.073 1.073 0 01-.188-.603c0-.219.068-.425.188-.596l-.528-.493-9.582-8.681h-1.767v4.529a.22.22 0 01-.09.171zm13.697 6.03c-.204.109-.401.191-.65.191a1.38 1.38 0 01-.664-.191l-.544.479-1.993 1.809h6.38l-1.993-1.802v-.014l-.536-.472zm.045-.967a.55.55 0 00-.045-.219l-.235.219.235.24a.532.532 0 00.045-.24zm-.695.364l-.234.233c.061.02.128.041.234.041a.702.702 0 00.249-.041l-.249-.233zm.249-.953a.702.702 0 00-.249-.041.546.546 0 00-.234.041l.234.233.249-.233zm-.657.589l-.249-.219c-.015.062-.045.151-.045.219 0 .09.038.158.045.24l.249-.24zm-12.549-162.83v9.023h.023l25.997 9.428v-9.01l-26.02-9.442zm26.02 8.886v-9.01l-26.02-9.449v9.03c0 .008 0 0 .023 0l25.997 9.429zm-26.02.685v9.037s0-.013.023 0l25.997 9.422v-9.017l-26.02-9.442zm0 9.572v9.023c0 .014 0 0 .023 0l25.997 9.422v-9.003l-26.02-9.442zm0 9.558V88.833c0 .007 0 0 .023 0l25.997 9.428v-9.017l-26.02-9.442zm0 9.572v9.024c0 .013 0 0 .023 0l25.997 9.434v-9.023l-26.02-9.435zm0 9.579v9.023h.023l25.997 9.421v-9.003l-26.02-9.441zm0 9.558v9.037h.023l25.997 9.421v-9.017l-26.02-9.441zm0 9.572v9.023h.023l25.997 9.435v-9.017l-26.02-9.441zm0 9.565v9.03c0 .007 0-.013.023 0l25.997 9.428v-9.017l-26.02-9.441zm0 9.572v9.03c0 .007 0 0 .023 0l25.997 9.421v-9.017l-26.02-9.434zm0 9.571v9.024h.023l25.997 9.435v-9.024l-26.02-9.435zm0 9.572v9.038s0-.014.023 0l25.997 9.428v-9.024l-26.02-9.442zm0 9.572v9.024h.023l25.997 9.421v-9.017l-26.02-9.428zm0 9.558v9.017h24.827l-24.827-9.017zm0-139.295h7.974c.151 0 .294.102.294.253 0 .137-.143.26-.294.26h-7.974v4.283h.023l25.997 9.435v-9.03l-26.02-9.429v4.228zm1.397-4.283l24.623 8.942V34.6c-1.594-.116-2.847-1.254-2.998-2.679h-21.625v-.007zm24.623 2.172v-2.172h-2.409c.136 1.151 1.125 2.056 2.409 2.172zm.264-4.878c-1.382 0-2.514.966-2.665 2.2h5.345c-.136-1.234-1.268-2.2-2.68-2.2zm.294 2.706v2.172c1.261-.116 2.25-1.02 2.386-2.172h-2.386zm2.938 0c-.129 1.432-1.359 2.563-2.938 2.68v6.214l9.061-4.104h-7.573c-.166 0-.272-.117-.272-.26 0-.151.106-.254.272-.254h8.698l9.438-4.283h-16.686v.007zm17.57.158l-9.053 4.125h9.053v-4.125zm0 4.632h-10.194l-10.314 4.68v9.003l20.508-9.319v-4.364zm0 4.947l-20.508 9.304v8.997l20.508-9.312v-8.99zm0 9.565l-20.508 9.318v8.99l20.508-9.319v-8.99zm0 9.572l-20.508 9.304v8.996l20.508-9.304v-8.996zm0 9.558l-20.508 9.318v8.996l20.508-9.311v-9.003zm0 9.572l-20.508 9.318v8.99l20.508-9.319v-8.99zm0 9.571l-20.508 9.305v8.996l20.508-9.304V89.49zm0 9.565l-20.508 9.319v8.996l20.508-9.311v-9.004zm0 9.586l-20.508 9.298v8.996l20.508-9.311v-8.983zm0 9.551l-20.508 9.319v8.996l20.508-9.318v-8.997zm0 9.572l-20.508 9.312v8.989l20.508-9.311v-8.99zm0 9.572l-20.508 9.318v8.997l20.508-9.319v-8.996zm0 9.565l-20.508 9.318v8.983l20.508-9.318v-8.983zm0 9.572l-20.508 9.311v8.997l20.508-9.305v-9.003zm0 9.565l-20.508 9.318v8.997l20.508-9.319v-8.996zm0 9.572l-19.586 8.9h19.586v-8.9zm0 28.551h-19.02c-.166 0-.272-.11-.272-.254a.26.26 0 01.272-.26h19.02v-18.616h-47.078V203.64h1.321c-.037-.075 0-.144.061-.205.121-.11.272-.11.392 0l.25.205h5.957c.151 0 .294.13.294.261 0 .15-.143.253-.294.253h-5.391l9.71 8.811c.189-.109.423-.191.664-.191.249 0 .446.082.65.191l.543-.486a.336.336 0 01.416 0 .333.333 0 01.068.178.352.352 0 01-.068.185l-.544.493c.121.172.211.377.211.596 0 .227-.09.425-.211.603l2.869 2.611c.015.014.015.034.038.048h30.157v-13.032h-.015zm0 13.546h-37.874l-14.633 13.251c.091.048.144.116.144.206v6.07c0 .137-.106.24-.25.254l5.407 4.906 14.693 13.34 4.13-3.734h-4.002c-.173 0-.287-.117-.287-.254s.106-.26.287-.26h4.569l27.823-25.263v-8.516h-.007zm5.285-185.792h-4.696v4.283h4.696v-4.283zm0 133.719V36.704h-4.696V184.51h4.696v-18.876zm0 19.39h-4.696v18.616h4.696v-18.616zm0 30.62v-11.49h-4.696v13.032h4.281l-.204-.192a.275.275 0 010-.363c.121-.11.294-.11.4 0l.212.185v-1.172h.007zm-20.734 251.164h15.245V323.772h-15.245v143.036zm0-143.55h15.245V252h-15.245v71.258zm0-71.772h15.245v-17.575l-15.245 13.834v3.741zm20.734-23.282v-10.49h-4.689v8.626c0 .062-.038.13-.083.171l-27.529 24.988h1.306c.166 0 .272.117.272.261 0 .137-.106.253-.272.253h-1.88l-4.508 4.105 3.33 3.021 34.053-30.935zm-21.285 245.894v-2.37h-1.306c.068.959.551 1.774 1.306 2.37zm0-2.877v-2.344c-.755.576-1.238 1.412-1.306 2.344h1.306zm-15.26-147.963h5.55c.166 0 .272.116.272.253 0 .144-.106.261-.272.261h-5.55v143.036h5.55c.166 0 .272.082.272.233a.264.264 0 01-.272.274h-5.55v3.906h13.357c.106-1.234.816-2.344 1.903-3.001v-.898h-3.02a.264.264 0 01-.272-.274c0-.151.106-.233.272-.233h3.02V323.772h-3.02c-.166 0-.272-.11-.272-.261 0-.137.106-.253.272-.253h3.02V252h-3.02c-.166 0-.272-.117-.272-.254a.26.26 0 01.272-.26h3.02v-3.227l-15.26 13.847v61.152zm-15.826 0h7.974c.151 0 .294.116.294.253 0 .144-.143.261-.294.261h-7.974v143.036h7.974c.151 0 .294.082.294.233 0 .151-.143.274-.294.274h-7.974v3.906h15.26v-3.906h-.566c-.174 0-.287-.123-.287-.274 0-.151.106-.233.287-.233h.566V323.772h-.566c-.174 0-.287-.11-.287-.261 0-.137.106-.253.287-.253h.566v-60.645l-15.26 13.847v46.798zm-5.285 144.057v.809c0 .15-.106.267-.272.267-.151 0-.287-.117-.287-.267v-.809h-8.177l-2.114 3.906h15.577v-3.906h-4.727zm-.551-186.291v-1.254c0-.137.128-.261.287-.261.166 0 .272.117.272.261v.747l20.613-18.706 2.582-2.336-3.353-3.029-58.04 52.69-1.216 1.09 1.215 1.068c.06.062.091.124.091.192 0 .062-.038.131-.09.185a.304.304 0 01-.393 0l-.921-.836v.281c0 .137-.129.254-.31.254a.26.26 0 01-.25-.254v-.281l-1.389 1.261-1.85 1.686h-.022l-9.393 8.53c0 .13-.106.219-.257.233l-.777.699h6.667l46.534-42.22zm-78.503 71.258l25.785-23.406v-.493c0-.151.09-.261.272-.261.15 0 .287.11.287.233l5.058-4.59h-6.667l-24.728 22.473v6.044h-.007zm0-6.763l1.465-1.357-1.465-.438v1.795zm-.302-5.235c.173 0 .31.11.31.261v2.637l1.902.59 7.022-6.359-9.053-2.754c-.068.034-.106.062-.174.062-.12 0-.189-.09-.234-.185l-12.307-3.721-7.007 6.372 19.269 5.831v-2.473c-.015-.151.113-.261.272-.261zm-.287 6.468l-28.806 26.14 3.315 3.035 25.483-23.132v-6.043h.008z"
        fill="#414042" />
    <path
        d="M.03 122.31h2.9v-.452H.03v-.514h2.9V97.486c0-.15.128-.26.271-.26.151 0 .295.11.295.26v23.858H37.7V52.011H3.496v27.243c0 .15-.144.26-.295.26a.266.266 0 01-.272-.26V52.01H.03v-.507h2.9v-.452H.03v-.527h2.9v-1.659c0-.137.128-.26.271-.26.151 0 .295.117.295.26v1.659h35.548c.143 0 .272.13.272.267v71.772c0 .137-.129.26-.272.26H3.496v5.043c0 .137-.144.26-.295.26-.143 0-.272-.116-.272-.26v-5.043H.03v-.514zm3.466 0h35.268V51.052H3.496v.452h34.498c.151 0 .272.117.272.247v69.867c0 .137-.12.247-.272.247H3.496v.445z"
        fill="#414042" />
</svg>