<svg viewBox="0 0 80 60" style="background: #fb5b11;" xmlns="http://www.w3.org/2000/svg">
    <mask id="prefix__a" style="mask-type:alpha" maskUnits="userSpaceOnUse" x="0" y="0" width="86" height="75">
        <path
            d="M80.468 37.281L79 35.321l-5.5-7.844-13-20.59-29-6.862L15 18.653 8 33.85l-1 1.47-.462 3.006L0 39.37l5.03 26.81 22.63 8.357h24.141l24.643-6.267L86 40.415l-5.532-3.134z"
            fill="#D9D9D9" />
    </mask>
    <g mask="url(#prefix__a)" transform="translate(-4 -6)">
        <path fill-rule="evenodd" clip-rule="evenodd"
            d="M50.718 21.696h3.302v-5.224l-3.266-.04c-.267.595-.119 4.416-.036 5.264zM78.48 10.628C73.253-.36 64.734-7.867 51.675-10.965c-2.374-.562-5.015-.646-7.795-.775l-4.072.27c-2.707.495-5.362.835-7.677 1.743-2 .785-4.13 1.46-5.913 2.516-8.764 5.18-14.31 11.364-18.204 21.476-.809 2.1-1.159 4.45-1.61 6.889-.992 5.307.002 11.616 1.267 15.713 3.533 11.464 11.18 19.527 21.733 23.916 2.12.881 4.359 1.577 6.835 2.166 1.242.296 2.463.306 3.8.542 1.219.217 3.99.473 5.416.233 1.086-.076 2.175-.156 3.265-.233 2.014-.369 3.979-.599 5.798-1.161 8.083-2.499 14.479-6.772 19.125-12.732 1.687-2.166 3.437-4.485 4.61-7.157a48.26 48.26 0 002.994-9.211c1.74-7.99-.139-17.074-2.767-22.602zM46.376 50.374c-2.08.36-4.51.063-6.221-.466-2.43-.752-4.365-2.093-6.99-2.556-2.262-.4-4.48.969-7.026.543-1.935-.326-3.507-.935-5.26-1.278-.823-.16-1.866-.033-2.649.076-1.017.147-2.225-.236-2.994-.465a1.63 1.63 0 00-.04-.077l1.037-.04c1.086-.186 2.166-.36 3.15-.579.347-.027.69-.053 1.037-.076 1.588.103 2.763.592 4.07.928.82.21 1.665.2 2.573.35.436-.027.872-.054 1.304-.077 1.793-.293 4.306-.832 6.066-.35 2.526.696 4.342 2.1 6.795 2.865 2.127.663 4.828.746 7.334 1.005-.496.31-1.536.084-2.186.197zm-34.099-8.669v-.04c.205-.143.611-.056.882-.156 1.803.02 3.054 1.108 4.953.812 2.786-.433 7.03-1.261 10.06-.659v.04l-3.88.27c-2.1.372-5.213 1.387-7.604.968-1.637-.286-2.81-.978-4.41-1.235zm46.85 6.5c-2.248.389-4.08 1-6.336.116-2.496-.982-4.493-2.463-7.333-3.175-2.513-.629-5.445.516-7.911-.116-1.691-.433-2.764-1.498-4.57-1.82-1.734-.31-3.2.429-4.494.735-1.654.39-3.943.283-5.722.116l-.04-.076c2.998-.054 5.33-.696 7.604-1.395l1.575-.31c3.197-.002 3.996 1.106 6.452 1.625.97.206 2.417.07 3.302-.077 1.446-.236 3.246-.12 4.454.193 1.53.396 3.015.969 4.263 1.704 1.189.702 2.424 1.534 3.84 1.973 1.631.506 3.464-.23 5.3.077.802.133 1.81.26 2.496.31-.248.222-2.298.02-2.88.12zm18.739-7.159c-.489.22-1.516.077-2.15.077H54.1c-2.443.027-4.89.053-7.334.076.294.077.588.157.882.233.938.406 1.816.796 3.034 1.005 2.55.44 4.93-.835 7.525-.31 3.15.64 5.25 2.164 8.103 2.98 2.427.695 5.726.275 8.562.425v.156c-3.15.72-7.436.606-10.252-.27-2.001-.621-3.8-1.547-5.954-2.089-2.611-.655-5.29.563-8.102.04-2.49-.466-4.194-1.784-6.72-2.206h-7.142l-16.78-.04h-5.375l-4.379-.04c-.053-.13-.102-.26-.155-.386v-.27c.472-.026.948-.053 1.42-.076 22.155.01 44.572.03 66.43.04.103.206.06.426.004.655zm-63.783-4.22c.575-.219 1.153-.438 1.727-.658.832-.49 1.664-.982 2.496-1.47.552-.24 1.199-.224 1.806-.467h1.576c.026.04.052.077.076.117l.04 2.439c-.549.253-1.533.01-2.19.116-2.08.33-3.457.673-5.452.04-.03-.04-.052-.076-.079-.116zm41.396-20.43c1.677 2.036 3.355 4.075 5.029 6.112.908 1.095 1.82 2.193 2.727 3.291v13.118c-2.278.026-4.556.053-6.835.076-.29-.652.007-1.724-.115-2.556V31.02l-.04-1.82c-.218-.276-1.43-.117-1.882-.117h-5.415l-.04 9.87-6.99.04c-.105-.233-.023-.599-.076-.928l-.04-5.727v-6.193c3.61-4.346 7.219-8.695 10.83-13.041h.077c1.066.812 1.945 2.23 2.77 3.291zm-1.882-4.57c.594.157 2.704 2.905 3.186 3.52 1.331 1.602 2.662 3.199 3.992 4.8.397.505 1.064 1.008 1.384 1.547.555.938 2.054 2.838 2.88 3.484v.116l-.5.04c-1.528-1.474-2.83-3.31-4.147-4.991-1.32-1.687-2.853-3.191-4.107-4.955-.538-.752-2.56-2.742-2.688-3.56zm1.575 20.821l-.69.04c-.106-.223-.086-.665-.076-1.005.155-.04.307-.076.462-.116h.347c.106.223.086.665.076 1.005-.043.026-.083.05-.119.076zm.116 1.588l-.806.04c-.116-.24-.119-.882 0-1.122h.77c.01.36.022.722.036 1.082zm0-3.252c-.04.027-.076.054-.116.077h-.654c-.218-.14-.145-.436-.115-.735l.115-.157h.69c.09.187.09.523.08.816zm-.81 3.717h.73c.11.23.086.696.076 1.045-.267.04-.538.077-.805.117-.027-.04-.053-.077-.076-.117l-.04-.888.116-.157zm0 2.71c-.105-.224-.085-.666-.075-1.006.062-.04.128-.076.191-.116h.614c.139.286.1.662.076 1.045-.178.086-.511.086-.805.076zm.81 1.43c-.182.087-.515.087-.806.077-.136-.217-.175-.779-.04-1.045h.806l.04.968zm-1.46-6.153l-.882.04c-.108-.223-.122-.842-.04-1.121h.962c.105.223.086.665.076 1.005-.04.023-.08.05-.116.076zm.076 1.548c-.32.026-.64.053-.96.076-.12-.246-.123-.915 0-1.161l.88.04c.15.156.093.752.08 1.045zm.04-3.212c-.228.11-.69.087-1.037.077-.086-.183-.086-.52-.076-.812.063-.04.129-.076.191-.116l.846.04c.026.04.053.076.076.116v.695zm-1.037 3.714h.921c.11.23.086.696.076 1.045-.221.107-.66.087-.997.077-.119-.24-.122-.882 0-1.122zm.036 2.709c-.115-.24-.119-.882 0-1.122h.961c.106.223.086.666.076 1.005-.248.123-.664.13-1.037.117zm1.037 1.394c-.185.093-.839.16-1.037.077-.178-.123-.155-.769-.076-1.005l1.077.04c.01.296.023.592.036.888zm-2.612-.888h.882c.096.2.086.579.076.888-.205.127-.562.13-.922.117-.095-.207-.115-.746-.036-1.005zm.04-1.628h.806c.026.04.052.077.075.117l.04.928c-.215.117-.558.13-.921.117-.119-.246-.122-.915 0-1.162zm.921-.579c-.04.027-.076.054-.115.077l-.846.04c-.122-.253-.086-.872.04-1.122l.806.04c.184.123.128.653.115.965zm-.921-3.021c-.122-.203-.139-.789-.04-1.121l.961.04v1.004c-.205.1-.604.09-.921.077zm.921 1.47c-.205.1-.74.117-.997.04v-.968l.115-.116h.77c.026.04.053.076.076.116.01.31.023.62.036.929zm-.96-3.094c-.106-.176-.13-.413-.116-.735l.115-.157h.882c.026.04.053.077.076.117l.04.659c-.215.133-.618.13-.998.116zm-.536 3.135c-.188.09-.544.086-.845.076-.109-.23-.086-.695-.076-1.045l.155-.116.69.04c.106.23.086.695.076 1.045zm0 1.547c-.181.087-.515.087-.805.077-.027-.04-.053-.077-.076-.117l-.04-.852.116-.116h.73c.108.233.128.739.075 1.008zm-.079 1.627l-.73.04c-.026-.053-.053-.103-.076-.156l-.04-.812.116-.157h.73c.027.054.053.104.076.157l.04.852c-.037.023-.076.05-.116.076zm.116 1.431c-.192.12-.499.13-.846.117-.112-.18-.161-.573-.076-.852.053-.063.103-.13.156-.193.244-.01.515-.014.653.076l.076.077c.01.26.023.516.037.775zm-.846-6.116c-.148-.273-.148-.829 0-1.121l.806.04.04.968c-.192.116-.499.13-.846.113zm.04-2.552l.654.04.115.04v.775c-.188.103-.439.13-.769.116h-.04c-.161-.263-.138-.739.04-.971zM37.467 23.09l-.04-.04v-.04c.843-.299 2.15.147 3.035-.193l1.575.04c.116.074.066.007.116.157-.04.103-.076.206-.116.31-.825.475-3.715-.107-4.57-.234zm-.881-4.682c.885-.236 1.839-.416 2.879-.579.756-.04 1.509-.076 2.265-.116 1.42.026 2.843.053 4.263.076h.076c-.04.32-.215.656-.463.776l-2.648.04c-2.123-.04-4.25-.077-6.376-.117.004-.03.004-.056.004-.08zm-.614-1.627v-.04c.66-.705 3.76-.675 5.144-.695l1.727-.04 4.61.04h.075v.116l-.422.62c-.212.142-2.361.175-2.764.116l-8.37-.117zm11.213-3.677a1.63 1.63 0 00-.04-.076c.565-.164.98-.483 1.575-.736.684 0 1.34.037 1.882.117-.24 1.517-2.252.445-3.417.695zm1.188 1.125l.69.04c-.402 1.25-1.915.928-3.493.928-3.15 0-6.181.097-9.331.077l-.04-.04v-.157h.076c.605-.376 1.783-.176 2.572-.31 2.107-.352 4.372-.152 6.604-.502.978-.013 1.952-.026 2.922-.036zm-11.979-1.977c-.076.256-2.882 3.567-3.11 3.677h-.04v-5.92l.116-.116h2.919c.194.33.27 1.837.115 2.36zm2.19 7.085c1.036-.027 2.073-.053 3.11-.077l3.186.04c-.34 1.195-2.097.852-3.573.852-3.536 0-7.148-.087-10.483-.156v-.04c2.248-.656 5.247-.23 7.76-.62zM36.776 21l3.685-.04h3.11l-.653.888h-14.63c-.013-.026-.026-.053-.04-.076.482-.223 1.16-.193 1.767-.31 2.014-.386 4.487-.393 6.762-.462zm3.916 5.57c.294.662.076 2.742.076 3.637v8.669c-.663.302-4.032.083-4.992.076-.205-.456.013-1.238-.076-1.82V30.32l.654-.659c.485-.608 1.096-1.14 1.459-1.856-.026-.054-.053-.104-.076-.157-.809-.206-2.04-.116-3.034-.116l-6.297.04c-.872.901-1.74 1.807-2.612 2.708v.157l.231.233.846.04c.026 2.722.052 5.444.075 8.166-.703.322-3.077.086-4.031.076-.027-.04-.053-.076-.076-.116V26.684c1.004-.452 2.668.25 3.724-.156 4.709.02 9.42.033 14.13.043zm-6.91 5.843h-.04c-.162-.273-.13-.868-.116-1.314l.116-.117h.574c.139.3.05.902.04 1.355-.136.07-.337.086-.575.076zm.574 1.704l-.614.04c-.13-.27-.132-1.085 0-1.354h.574c.017.439.03.875.04 1.314zm-.73.62l.116-.157h.538c.145.3.09.832.04 1.161l-.615.04c-.109-.23-.089-.695-.079-1.045zm.116 1.51c.128-.027.257-.053.383-.077l.115.04c.202.14.13.825.116 1.162-.145.07-.367.086-.614.076-.027-.04-.053-.076-.076-.116l-.04-1.005c.04-.03.08-.053.116-.08zm-.076 1.704c.165-.027.333-.054.498-.077h.156c.026.336.052.672.076 1.005v.04c-.152.073-.397.087-.654.076-.11-.232-.086-.698-.076-1.044zm-.499-3.87c-.175.083-.485.086-.77.076-.131-.28-.085-.872-.075-1.278l.115-.116h.654c.132.29.086.902.076 1.318zm-.04 1.623c-.174.084-.485.087-.769.077-.026-.04-.053-.076-.076-.116v-.969c.205-.04.41-.076.614-.116l.156.04c.208.146.125.815.076 1.084zm.04-3.404c-.155.08-.538.163-.73.077l-.115-.04c-.07-.346-.096-1.072.04-1.355l.805.04V32.3zm-.806 3.907h.73c.116.246.086.755.076 1.121-.181.087-.515.087-.806.077-.122-.246-.125-.948 0-1.198zm0 1.704h.806l.04.968c-.188.09-.545.087-.846.077-.115-.23-.115-.816 0-1.045zm-.501-5.574c-.268.13-.941.106-1.268.04-.132-.28-.086-.872-.076-1.278l.115-.156h1.192c.159.342.05.928.037 1.394zm0 1.78c-.255.087-.83.05-1.192.077h-.04c-.139-.297-.086-.929-.076-1.355.294-.026.588-.053.882-.076h.383c.165.34.06.932.043 1.354zm-1.265.426h1.192c.135.236.09.722.076 1.162-.264.126-.878.116-1.228.116-.027-.04-.053-.077-.076-.117-.116-.252-.063-.961.036-1.16zM31.9 37.37c-.257.127-1.027.133-1.344.04l-.04-1.085.116-.156h1.192c.122.266.086.815.076 1.201zm-1.304.583h1.268c.099.206.086.609.076.928-.304.173-.81.13-1.304.116-.027-.04-.053-.076-.076-.116-.103-.223-.05-.762.036-.928zm-.538-5.614c-.142.073-.502.126-.69.04-.212-.153-.182-1.192-.076-1.395h.69c.026.04.053.077.076.117v1.238zm-.116 1.857l-.654-.04-.04-1.355c.054-.026.103-.053.156-.076l.575.04c.102.2.191 1.32-.037 1.43zm-.69 3.793h.77c.095.2.085.58.075.889-.04.026-.076.053-.115.076l-.69.04c-.103-.203-.12-.745-.04-1.005zm.076-1.817h.654c.026.04.053.077.076.117l.04 1.085c-.053.026-.103.053-.156.076h-.69c-.056-.296-.053-1.011.076-1.278zm.73-.426c-.165.08-.456.087-.73.077-.168-.356-.082-1.161.04-1.47.898.245.782.235.69 1.393zm-1.843 2.207h.499c.099.206.086.609.076.928-.053.027-.102.053-.155.077l-.347.04c-.026-.04-.053-.077-.076-.117.003-.31.003-.619.003-.928zm-.04-5.188l.116-.157c.13.027.258.054.383.077l.076.077v4.721c-.053.027-.102.054-.155.077l-.347.04c-.287-.646-.079-3.847-.072-4.835zm.575-.386a.651.651 0 01-.498.076c-.142-.296-.142-1.254 0-1.547l.462.04c.162.346.056 1.005.036 1.43zm50.113 4.758c-1.192.672-3.45-.036-4.722-.193-1.773-.22-3.12.55-4.61.812-1.214.217-1.94-.372-2.954-.386v-.04c.498-.233.997-.465 1.499-.695.997-.61 1.747-1.54 2.88-2.013.441-.183 1.003-.12 1.498-.31 2.533.077 4.18 2.103 6.376 2.669l.04.116c-.007.017-.007.027-.007.04zm1.384-4.798c-.261 1.208-.275 2.805-.846 3.793-.36.483-2.866-.831-3.226-1.044-3.239-1.914-4.936-1.844-7.911.309-1.156-.589-2.13-1.201-3.916-1.161-.238-.473-.076-1.67-.076-2.4l-.04-5.417c.605-.29 2.754-.127 3.725-.116.026-.064.053-.13.076-.194-.717-1.394-2.084-2.505-3.035-3.713l-6.527-7.857c-.984-1.174-1.972-2.35-2.956-3.52-.373-.48-.742-1.192-1.267-1.511l-16.82 1.238c-.33-.945.181-.879.307-1.278-.04-.31-.076-.619-.116-.929-.162-.073-5.204-.14-5.451-.04-.562.353.063 1.132.115 1.395l-.04 1.085c-.039.026-.075.053-.115.076-.654.053-1.304.103-1.958.157-1.281 1.534-2.559 3.071-3.84 4.605-2.004 2.556-4.233 4.942-6.26 7.507-.767.969-1.846 1.804-2.457 2.902l.04.193c1.09.39 2.985-.306 4.07.117.248.196.116 1.207.116 1.623L21.8 33.5c-.22.283-1.277-.066-1.805.04-.677.137-1.374.286-1.958.543-.648.282-1.258.925-2.074.968-2.338-1.657-4.93-1.784-7.796-.58-.528-.492-.597-3.476-.77-4.488-.795-4.752.219-10.482 1.312-14.09C12.356 3.834 20.558-4.076 31.824-8.488c2.351-.922 4.996-1.308 7.756-1.82l4.072-.27c18.309.027 31.037 11.817 35.442 26.006 1.387 4.469 2.348 11.377 1.153 16.91z"
            fill="#fff" />
    </g>
</svg>